<svg xmlns="http://www.w3.org/2000/svg" width="228" height="228" viewBox="0 0 228 228"><defs><style>.a{fill:#fff;}</style></defs><circle cx="114" cy="114" r="114"/><path class="a" d="M357.646,217.353a6.756,6.756,0,0,1,1.429.188c.141.043,1.36.385,1.505.417.126.024.824.193.936-.277.052-.257-.662-.809-.674-.819-.071-.257-.272-.415-.283-.657.127-.525.184-.662.219-.817a14.045,14.045,0,0,1,1.364-2.088,2.771,2.771,0,0,1,.839-.739,3.259,3.259,0,0,1,1.794-.119l4.683,1.219a5.138,5.138,0,0,1,2.474,1.505c.609.869.828,4.054.808,4.389-.041.683-.925.259-1.144,1-.043.143.1.64.335.588l3,1.254a17.859,17.859,0,0,1,2.514,1.319c.115.032,1.165.61,1.379-.112.26-.86-1.014-.834-1.258-1.784-.166-.683-.294-1.34-.432-2.047-.1-.439-.229-1.933-.307-2.344-.285-1.641-.674-2.778-.94-4.317-.48-2.845-1.276-6.242-1.721-8.918a31.321,31.321,0,0,1-.742-3.637,2.244,2.244,0,0,1,.259-1.007,3.369,3.369,0,0,0,.806-.835c.009-.013.056-.419-.223-.532-1.046-.435-3.055,1.135-3.851,2.06-.465.541-1.01,1.165-1.4,1.593-.259.275-.612.811-.858,1.083-.528.6-.975.953-1.552,1.559-.657.692-1.293,1.65-1.931,2.274-.134.119-.748,1.008-.887,1.148-.681.668-1.144,1.347-1.769,2.062-.783.895-1.466,1.732-2.261,2.657-.048.045-1.338,1.754-1.4,1.762a3.272,3.272,0,0,1-2.614,1.764c-.994.145-.125.819-.192.895A16.288,16.288,0,0,1,357.646,217.353Zm8.03-8.012a23.976,23.976,0,0,1,2.3-2.969c.38-.441.956-1.369,1.589-1.315.765.061,1,1.258,1.315,3.667a8.485,8.485,0,0,1,.145,2.236c-.4.716-1.014.54-1.9.27l-2.947-.826C365.591,210.274,365.6,209.647,365.676,209.341ZM409.658,236.8c-.05.2-.567,2.169-.726,2.623-.385,1.1-.59,2.374-.969,3.481-.283.845-.564,1.89-.9,2.973-.128.43-.231.832-.331,1.107-.05.125-.182.714-.407.847-.448.268-.9-.839-1.377-.549-.383.229-.134.757.054,1.068.076.128,1.049,1.619,1.12,1.747l.634,1.031c2.015,3.442,1.634,3.01,1.682,3.118.1.227.262.6.339.731.015.017.469.493.742.3.385-.337.108-.969-.151-1.581a3.937,3.937,0,0,1,.225-1.9c.327-1.178.718-2.936,1.217-4.841.134-.6.478-2,.523-2.052.607-2.181,1.1-4.045,1.505-5.152.275-.776.849-.876,1.769-.61,1.075.259,1.929.424,3.02.746.415.125,1.129.29,1.745.441s1.531.385,2.2.577c.257.078.7.216.988.285a7.8,7.8,0,0,1,1.455.661c.465.307.988,1.221,1.429.971.253-.136.167-.335.151-.668-3.394-5.4-2.05-3.4-3.042-5.035a.542.542,0,0,0-.61-.2c-.571.264.279.973-.415,1.181-.153.045-3.111-.679-3.771-.783a49.019,49.019,0,0,1-6.376-1.448A1.192,1.192,0,0,0,409.658,236.8Zm-11.751,1.727c-.247.214.009.608.188.787,1.557,1.55,2.642,2.914,3.641,4.024.342.38.638.547.888.309.6-.59-.649-1.142.4-2.123l11.789-10.481c.352-.324.677-.713,1.116-.724a6.6,6.6,0,0,1,1.185.294.759.759,0,0,0,.484-.192c.206-.194.158-.407-.056-.649-.106-.115-.564-.532-.67-.646s-.368-.376-.912-1.044a6.7,6.7,0,0,0-1.174-1.165,7.238,7.238,0,0,1-.7-.861c-.1-.115-.34-.458-.685-.839a.515.515,0,0,0-.716-.119c-.119.113-.3.521-.141.737a1.184,1.184,0,0,1-.173,1.728l-6.78,5.928-5.576,4.923C399.178,239.174,398.571,237.927,397.907,238.526ZM418.6,289.593c-.34.019-.9.009-1.505.015-.858.007-1.773-.009-1.809-.009l-1.323-.017c-.182-.019-.257.078-.257.169,0,.322-.011.484-.035.791-.007.108.145.193.2.08a.446.446,0,0,1,.2-.236,1.191,1.191,0,0,1,.56-.158,1.486,1.486,0,0,1,.277-.017c.376.007.748.035.757.307.015.38,0,1.745,0,1.745l.017,1.02c0,.035-.017.977-.017,1.021,0,.078-.011.545-.011.607a.606.606,0,0,1-.1.342c-.074.1-.229.084-.229.2,0,.086.035.1.154.115.169-.007.435-.039.467-.039a9.69,9.69,0,0,1,.99.026.126.126,0,0,0,.1-.22c-.058-.037-.136-.034-.208-.117a.834.834,0,0,1-.1-.387c-.032-.493,0-.9-.015-1.607-.015-.352.015-.659.006-.979-.02-.45.013-.964.013-1.364s0-.493.18-.588a1.178,1.178,0,0,1,.6-.127,1.892,1.892,0,0,1,.927.19c.084.046.108.169.16.244s.207.071.193-.121a6.211,6.211,0,0,1,0-.642C418.8,289.772,418.738,289.582,418.6,289.593Zm-4.562-33.868c-.847.353-1.989.806-2.346.956-1.094.452-1.31-1.109-1.967-.716-.32.19-.389.415-.331.551,0,0,.6,1.334,1.133,2.689a58.953,58.953,0,0,1,2.59,7.509,32.334,32.334,0,0,1,.9,3.165c.106.607.249.874.473,2.223.164.96.305,2.268.354,2.646.143,1.2.5,1.048.919,1.008a25.381,25.381,0,0,0,3.557-.487c.039,0,.432-.125.381-.368-.16-.828-.912-.512-1.5-1.369a13.117,13.117,0,0,1-1.278-2.445,42.908,42.908,0,0,1-1.485-4.32c-.32-1.018-.439-1.593-.794-2.945-.445-1.7-.711-3.555.819-4.235a24.517,24.517,0,0,1,3.245-1.381,6.225,6.225,0,0,1,1.825-.448c.871.2,1.235,1.059,1.634,1.907.132.3.344.988.582,1.582a16.571,16.571,0,0,1,.549,2.162c.355,1.9-1.049,1.79-.876,2.462a.425.425,0,0,0,.487.27c.143-.047,1.027-.339,1.178-.374a10.614,10.614,0,0,1,2.1-.51,9.031,9.031,0,0,0,1.025-.288c.376-.115.089-.741-.262-.787-.657-.091-1.146-.66-1.565-1.92-.041-.145-.895-2.071-1.107-2.886a7.34,7.34,0,0,1-.569-2.6.929.929,0,0,1,.562-.668c.618-.309,1.695-.809,2.616-1.194a1.6,1.6,0,0,1,1.351-.082,3.8,3.8,0,0,1,1.3,1.929c.374,1.01.625,2.076.964,3.36a9.8,9.8,0,0,1,.365,2.53,2.557,2.557,0,0,1-.579,1.609c-.2.283.128.755.538.638,1-.292,1.663-.508,2.469-.677.532-.117.59-.685.434-1.109-.128-.326-.247-.847-.372-1.274-.171-.6-.407-1.167-.575-1.861-1.341-4.465-2.817-8.56-3.946-11.456-.2-.532-.495-.394-.642-.331-.625.283.067,1.585-.936,2.03l-5.312,2.259S417.409,254.324,414.036,255.725ZM380.027,224.86a26.338,26.338,0,0,1,3.031,1.874c.125.089,1.232.847,1.353.953.785.7,1.394-.028.979-.571-.409-.571-.5-.724-.234-1.161,0,0,2.149-3.351,3.481-5.278.724-1.027,2.636-3.892,3.392-5,.761-1.144,1.165-1.842,1.239-1.948.5-.661.735-1.057.776-1.1.474-.519,1.007-.311,1.609.1a15.171,15.171,0,0,1,3.969,3.559c1.327,1.665,1.509,3.665.314,5.02a3.668,3.668,0,0,1-3.531,1.031,9.614,9.614,0,0,1-3.535-1.879c-.713-.553-1.209-1-1.673-.51a8.008,8.008,0,0,0-1.286,1.959,13.041,13.041,0,0,0-1.068,3.559,10.623,10.623,0,0,0,1.118,6.149,16.951,16.951,0,0,0,1.293,1.859,9.339,9.339,0,0,0,2.757,2.181,9.762,9.762,0,0,0,3.143.917,7.415,7.415,0,0,0,3.388-.318c.634-.208,1.247-.651,1.194-.949-.073-.463-.627-.433-1.027-.411a9.675,9.675,0,0,1-3.208-.393,7.884,7.884,0,0,1-2.662-1.505,7.275,7.275,0,0,1-2.06-2.648,8.979,8.979,0,0,1-.85-3.957,9.549,9.549,0,0,1,.687-3.842c.048-.069.123-.3.357-.1a17.14,17.14,0,0,0,2.08,1.505,8.608,8.608,0,0,0,3.877,1.289,7.924,7.924,0,0,0,2.274-.279,4.391,4.391,0,0,0,2.173-1.684,3.725,3.725,0,0,0,.744-3.33,13.389,13.389,0,0,0-.8-2.218,16.922,16.922,0,0,0-2.672-3.34,22.649,22.649,0,0,0-3.95-3.4c-.726-.43-1.682-1.163-3.2-2.024a15.769,15.769,0,0,1-2.285-1.615c-.471-.38-.78-.05-.729.2.184.94.835,1.306.43,1.989-.884,1.526-1.518,2.168-2.614,3.872-1.247,1.944-5.3,7.943-5.381,8.079-.288.454-.586.865-1.228,1.812-.441.742-.822.787-1.252.614a.834.834,0,0,0-.83.18C379.376,224.4,379.75,224.712,380.027,224.86Zm-1.18,142.594a2.958,2.958,0,0,1-.355-.67s-.776-2.331-1.537-5.1c-.828-3.029-2.324-7.952-2.785-9.576-.039-.151-.35-1.245-.575-2.069a1.032,1.032,0,0,1,.167-1.07c.335-.288.9-.473.854-.945a.533.533,0,0,0-.742-.421,25.532,25.532,0,0,1-3.407,1.386c-.4.074-1.3.24-1.213.7.182,1.062,1.505-.041,1.9,1.094.826,2.437,1.855,6.559,2.876,9.725.177.571-.18,1.016-.791.746s-1.239-.741-2.3-1.3c-.532-.277-1.965-1.2-2.482-1.522-.463-.275-1.3-.709-1.606-.908-.45-.3-1.9-1.23-2.378-1.479-2.035-1.046-2.876-1.684-4.7-2.75-.3-.18-.873-.486-1.161-.657a.913.913,0,0,0-.793-.21s-2.45.408-3.583.486c-.554.039-.733.326-.716.476.158,1.144,1.753.117,1.978,1.483a42.5,42.5,0,0,1,.646,4.8c.015.147.253,1.89.381,3.381.009.151.655,5.5.679,5.651.173,1.267.268,1.959.329,2.756.067.815-1.059.833-.915,1.567.073.355.512.374.9.285.992-.229,3.5-.471,3.522-.471a.478.478,0,0,0,.365-.571c-.056-.566-1.111-.316-1.245-1.139-.019-.153-.348-2.5-.417-2.927l-.339-2.19c-.019-.153-.264-2.43-.314-2.791-.238-1.526-.316-2.817-.339-2.96s-.145-1.349-.167-1.494c-.054-.353-.136-.724.46-.809.495-.076,2.149,1.049,2.3,1.152a32.2,32.2,0,0,0,2.839,1.667,27.765,27.765,0,0,1,2.75,1.766c1.892,1.107,2.988,1.866,4.731,2.862.962.551,2.071,1.213,2.285,1.34a25.109,25.109,0,0,0,4.021,2.108,4.766,4.766,0,0,0,1.721.247c.162-.046,1.074-.348.968-.746C380.431,367.525,379.435,368.236,378.847,367.455Zm-34.886-14.209c-.151-.037-1.219.009-1.807,0a13.069,13.069,0,0,1-2.469-.3c-.437-.1-.541.447-.433.686.126.3,1.057.463.707,1.09-.073.134-.428.523-.718.99-.705,1.157-1.617,2.222-2.264,3.386-.447.8-1.048,1.464-1.537,2.255a21.828,21.828,0,0,1-1.513,2.13c-.045.056-.982,1.736-1.371,1.669a.507.507,0,0,1-.337-.236,26.283,26.283,0,0,1-.448-2.8c-.141-.713-.285-1.714-.508-3.265-.05-.333-.119-1.276-.153-1.513-.272-1.812-.251-2.681-.463-4.35-.041-.372-.127-.543-.437-.621-.724-.186-.943-.112-1.449.594-.8,1.131-1.691,2.437-2.117,2.984-.584.746-1.379,1.864-1.474,1.98-.62.78-1.308,1.775-1.823,2.424-.225.287-1.7,2.475-2.147,2.324-.685-.223-.4-.525-.476-1.113-.061-.543-.034-1.325-.035-1.784s-.1-.979-.093-1.427a12.793,12.793,0,0,0-.021-1.978,27.354,27.354,0,0,1-.175-3.3c0-1.081-.087-2.049-.087-2.2.019-.913.6-1.2,1.44-1.219.331,0,.473-.757-.234-1-.83-.281-5.472-2.411-5.472-2.411a.578.578,0,0,0-.8.22c-.136.406.422.636.614.9a3.117,3.117,0,0,1,.445.733c.264.668.162,1.434.374,4.7.043.657.091,3.876.179,5.133.149,2.132.193,4.62.3,7.076.058,1.611.173,2.685.253,4.33.039.768.7,1.044,1.33.275,2.674-3.245,4.875-6.661,7.736-9.917.3-.355.575-.688.826-.621.333.086.374.83.424,1.444.069.815.212,1.807.337,2.6.322,2.022.575,4.112.824,6.013a30.047,30.047,0,0,0,.7,3.3s.454,1.031,1.122.181c.9-1.154,1.159-1.764,1.661-2.437,1.306-1.779,2.888-4.257,4.184-6.188l2.013-3.033c1.593-2.359,2.5-3.872,4.361-6.255.309-.406,1.526-.452,1.531-.982C344.471,353.391,344.159,353.275,343.961,353.245Zm8.966,19.527a1.2,1.2,0,0,1-1.239-1.232l-.318-8.959-.311-7.407c-.06-1.135,1.295-.809,1.254-1.7-.015-.324-.484-.379-.733-.355-2.2.223-3.944.192-5.442.262-.515.013-.835.134-.8.482.078.83,1.3.227,1.4,1.647l.7,15.712c.019.458.125.958-.149,1.308a6.664,6.664,0,0,1-.973.728.671.671,0,0,0-.158.486c.013.283.214.376.542.368.156-.011.774-.1.928-.1a11.853,11.853,0,0,1,1.386-.032,7.788,7.788,0,0,0,1.645-.171,7.261,7.261,0,0,1,1.118,0c.149,0,.575.032,1.087.011a.522.522,0,0,0,.551-.484C353.4,373.191,353.192,372.781,352.928,372.772Zm66.884-49.742c-1.135-.225-1.632.007-1.929.292-.156.154-.324.83-.013,1.02.729.437.835-.117,1.347-.035a2.384,2.384,0,0,1,1.913,2.009,7.227,7.227,0,0,1,.073,3.027c-.039.212-.443,1.619-.688,2.322a11.183,11.183,0,0,1-1.2,2.253,12.307,12.307,0,0,1-2.017,2.415,7.629,7.629,0,0,1-6.3,1.807,10.949,10.949,0,0,1-3.26-1.182,9.029,9.029,0,0,1-2.763-2.56,8.115,8.115,0,0,1-1.128-6.854c.355-.943.672-1.727.746-1.861a17.03,17.03,0,0,1,1.053-1.825c1.656-2.134,3.373-3.461,6.172-3.44.335-.071.4-.359.465-.517-.017-.169-.136-.3-.37-.4-2.138-.99-2.192-.984-2.328-1.047s-.731-.292-.867-.355-.791-.439-.928-.495c-.108-.048-.783-.233-.947.112a1.1,1.1,0,0,0,.067.77c.234.286.05.6-.264.917a18.467,18.467,0,0,0-3.546,4.235,13.616,13.616,0,0,0-.955,1.963,12.019,12.019,0,0,0-.716,1.8c-.13.636-.417,1.522-.534,2.061a18.959,18.959,0,0,0-.16,3.587,11.247,11.247,0,0,0,1.245,4.071,9.4,9.4,0,0,0,4.62,4.253,10.145,10.145,0,0,0,8.949-.305,17.2,17.2,0,0,0,2.969-2.121,14.581,14.581,0,0,0,1.788-2.328,18.143,18.143,0,0,0,1.812-3.49,16.276,16.276,0,0,0,1.092-4.376,9.64,9.64,0,0,0-.249-2.59A4.448,4.448,0,0,0,419.811,323.03Zm-19.886,27.319c-.781-1.317-1.15-1.767-.158-2.794.525-.545-.2-1.051-.623-.731-.612.452-.943.677-1.485,1.077-2.134,1.567-3.528,2.646-3.649,2.744-.473.368-.141,1.105.3.882a5.65,5.65,0,0,1,1.075-.465c.685-.141,1.252.486,1.641,1.15,1.129,1.948.43,3.343-1.237,5.018a16.9,16.9,0,0,1-3.29,2.24,7.391,7.391,0,0,1-4.328.673,6.987,6.987,0,0,1-4.488-2.355,13.024,13.024,0,0,1-2.008-3.267,10.011,10.011,0,0,1-.739-3.7,10.453,10.453,0,0,1,.419-2.432,8.148,8.148,0,0,1,3.072-4.25,13.162,13.162,0,0,1,4.707-1.931c2.776-.352,3.394.3,4.173.884.62.473,1.183-.365.839-.821a11.794,11.794,0,0,1-2.069-3.438c-.115-.385-.367-.752-.677-.612a.633.633,0,0,0-.443.837c.043.238-.238.677-.8.765a27.878,27.878,0,0,0-3.623,1.012,16.105,16.105,0,0,0-4.949,2.8,12.166,12.166,0,0,0-4.343,6.8,10.319,10.319,0,0,0,.741,6.477,14.184,14.184,0,0,0,1.113,1.846c1.888,2.78,5.146,4.423,9.935,3.993a13.825,13.825,0,0,0,4.806-1.572A28.012,28.012,0,0,0,397.9,358.4c.882-.772,1.15-1.317,1.9-2.067a15.8,15.8,0,0,0,1.637-2.8,1.361,1.361,0,0,0-.141-1.442A15.233,15.233,0,0,1,399.926,350.349ZM432.233,309.6a4.988,4.988,0,0,0-.7-.19c-.519-.21-.772-.18-.947.456-.67,2.456-1.2,4.372-2.093,6.748a30.883,30.883,0,0,1-2.2,4.674c-.687,1.161-.48,1.334-.167,1.457.333.141.78.421.964.491.421.171.554.095.819-.469.806-1.758.98-2.082,1.807-3.924.047-.095,1.135-3.059,1.274-3.381,0,0,.38-1.2,1-2.616.285-.668.452-1.972.662-2.6C432.75,309.946,432.556,309.768,432.233,309.6Zm-4.867,5.351a9.852,9.852,0,0,0,.612-1.755,23.438,23.438,0,0,0,.16-2.592,14.331,14.331,0,0,0-.422-1.9,10.348,10.348,0,0,0-1.656-3.029,7.97,7.97,0,0,0-1.794-1.691,9.685,9.685,0,0,0-1.97-1.077,9.429,9.429,0,0,0-4.093-.852c-.339.007-1,.048-1.261.087a6.793,6.793,0,0,0-4.294,2.549,13.878,13.878,0,0,0-1.92,3.241,8.166,8.166,0,0,0-.579,2.142,9.175,9.175,0,0,0-.039,1.889,7.77,7.77,0,0,0,2.2,5.055c.16.145.539.621.727.78a11.269,11.269,0,0,0,2.88,1.909c3.477,1.418,6.132.969,8.572-.951a15.2,15.2,0,0,0,1.918-2.011A15.941,15.941,0,0,0,427.365,314.953Zm-1.853-.822a6.651,6.651,0,0,1-.973,1.425,3.8,3.8,0,0,1-2.9,1.4,7.657,7.657,0,0,1-1.861-.039,9.754,9.754,0,0,1-2.218-.579,12.757,12.757,0,0,1-1.647-.8c-2.009-1.157-3.468-2.545-3.8-4.955a4.594,4.594,0,0,1,.783-3.232,4.524,4.524,0,0,1,1.369-1.2,5.064,5.064,0,0,1,2.871-.75c.19-.011,1.221.1,1.423.128a11.5,11.5,0,0,1,2.858.878c.112.058.573.326.687.381a9.423,9.423,0,0,1,3.535,3.771,5.21,5.21,0,0,1,.273,1.825A5.918,5.918,0,0,1,425.512,314.131Zm10.944-31.165c-.279-3.515-.484-7.26-.493-7.42l-.729-5.435c-.045-.748-.413-1-.711-.956a26.2,26.2,0,0,1-2.763.238c-.361.015-.58.668-.153.86a1.889,1.889,0,0,1,.934.7,5.725,5.725,0,0,1,.863,2.2,6.52,6.52,0,0,1,.223,1.144c.2,1.509.221,2.973-.737,3.083-1.314.151-6.088.419-6.088.419l-3.548.314c-.153.017-3.422.169-3.57.18-.272.024-1.905.078-2.11.084a1.87,1.87,0,0,1-1.224-.331c-.372-.275-.367-.895-.787-.874-.3.022-.352.145-.372.657.071.683.275,1.8.283,1.916.18,2.155.2,3.3.192,4.039-.013.6.607.672.776.335.128-.242.082-.579.365-.858a2.736,2.736,0,0,1,1.319-.517c1.728-.231,3.144-.223,5.58-.445,1.26-.119,2.316-.087,3.459-.22,1.554-.155,3.329-.162,4.744-.257,1.351-.1,1.7-.117,2.125.6a4.257,4.257,0,0,1,.547,2.222,9,9,0,0,1-.794,3.777c-.186.331-.61.406-.862.6a.478.478,0,0,0,.38.839,16.355,16.355,0,0,1,2.242.056.828.828,0,0,0,.9-.772C436.419,287.759,436.651,285.441,436.456,282.966Zm-16.68,11.755a1.642,1.642,0,0,1-.058.51c-.024.039-.275.091-.275.236,0,.128.06.119.166.1.037,0,.327-.043.456-.043a2.518,2.518,0,0,1,.424.037c.065,0,.158,0,.151-.113,0-.223-.27-.069-.27-.445,0,0-.022-.443-.022-.653,0-.525.043-1.453.037-1.8-.008-.247.024-.562.024-.6v-.363l.037-.264c.03-.158.1-.145.153-.145a5.987,5.987,0,0,1,.733.713c.134.138.956,1.014,1.1,1.161.076.084.1.093.162.093.069.017.112-.054.179-.117.035-.03.417-.564.515-.677s.409-.569.445-.612c.214-.253.437-.6.724-.895.1-.138.236-.149.236-.013,0,.112.006.229.006.292,0,.045-.048,2.275-.034,3.025.009.337,0,.852,0,.895,0,.318-.34.233-.34.406a.15.15,0,0,0,.065.11l.728-.063a.756.756,0,0,0,.238.037c.193,0,.482.026.526.026,0,0,.153,0,.153-.1,0-.166-.264-.125-.32-.452,0,0,.019-.834,0-1.581-.019-1.146.071-1.764.03-2.283v-.288c.007-.2.007-.329.007-.551.009-.242.047-.359.179-.4.091-.032.193-.095.18-.2s-.058-.108-.145-.108a3.212,3.212,0,0,0-.381.009,3.348,3.348,0,0,1-.579-.02c-.141.017-.311-.032-.43.086a5.362,5.362,0,0,0-.489.551c-.091.132-.346.461-.441.571-.246.316-.409.568-.69.871a.345.345,0,0,1-.158.1c-.082,0-.171-.13-.268-.238-.778-.787-1.492-1.6-1.742-1.877-.082-.1-.311.019-1.187-.067-.091-.007-.136.078-.128.169,0,.162.368.095.368.525l-.032,3.234C419.806,293.884,419.776,294.721,419.776,294.721ZM296.405,212.045a1.213,1.213,0,0,1,1.691.467l4.7,7.658,3.92,6.307c.6.964-.741,1.341-.262,2.1.171.275.608.1.817-.045,1.8-1.263,3.342-2.086,4.62-2.873.439-.264.649-.527.454-.815-.476-.683-1.245.441-2.024-.752l-8.352-13.363c-.251-.393-.59-.78-.517-1.211a6,6,0,0,1,.489-1.1.664.664,0,0,0-.1-.508c-.154-.233-.376-.231-.655-.056-.128.084-.621.461-.757.534a10.368,10.368,0,0,1-1.191.714,7.127,7.127,0,0,0-1.354.941,7.829,7.829,0,0,1-.975.536c-.132.086-.519.244-.956.523a.519.519,0,0,0-.246.677C295.793,211.907,296.175,212.162,296.405,212.045Zm-14,23.4a9.571,9.571,0,0,0,8.159,3.524,19.449,19.449,0,0,0,3.507-.6,14.162,14.162,0,0,0,2.649-1.267,18.6,18.6,0,0,0,3.208-2.294,16.018,16.018,0,0,0,2.977-3.409,9.58,9.58,0,0,0,.96-2.417,4.4,4.4,0,0,0-1.366-4.209c-.91-.718-1.455-.733-1.851-.612-.212.063-.668.594-.474.9.443.714.8.277,1.217.579a2.356,2.356,0,0,1,.783,2.644,7.245,7.245,0,0,1-1.328,2.735c-.132.175-1.128,1.245-1.669,1.754a11.018,11.018,0,0,1-2.093,1.479,13.258,13.258,0,0,1-2.906,1.239,7.633,7.633,0,0,1-6.443-1.235,10.8,10.8,0,0,1-2.365-2.521,8.932,8.932,0,0,1-1.291-3.531,8.168,8.168,0,0,1,1.961-6.672c.748-.681,1.39-1.239,1.514-1.327a17.081,17.081,0,0,1,1.782-1.146c2.443-1.157,4.745-1.507,7.232-.231a.663.663,0,0,0,.651-.24.517.517,0,0,0-.151-.528c-1.446-1.849-1.5-1.861-1.6-1.983s-.513-.586-.6-.705-.514-.744-.607-.863c-.074-.093-.59-.56-.891-.329a1.12,1.12,0,0,0-.294.72c.073.359-.231.562-.653.7a19.416,19.416,0,0,0-5.265,2.112,12.77,12.77,0,0,0-1.74,1.317,11.451,11.451,0,0,0-1.474,1.286c-.4.5-1.066,1.172-1.42,1.6a22.5,22.5,0,0,0-1.851,3.65,9.742,9.742,0,0,0-.316,4.949C280.9,232.723,281.1,233.789,282.408,235.445Zm46.377-35.608s.947,7.9,1.26,10.715c.143,1.315.437,4.806.437,4.806a4.556,4.556,0,0,1-.039,1.775c-.08.171-1.081.458-1.029.953.05.433.311.378.735.274a14.182,14.182,0,0,1,1.928-.592c.962-.127,1.516-.236,1.671-.244.264-.017.64-.056.586-.437-.1-.776-1.167-.113-1.328-1.4,0,0-.2-1.4-.288-2.11-.223-1.8-.519-5.409-.705-6.6a18.49,18.49,0,0,1-.145-2.067c-.024-.153-.149-1.126-.158-1.252l.035-.932c.052-.567.348-.56.566-.588a27.36,27.36,0,0,1,3.182,2.363c.58.46,4.14,3.317,4.761,3.792a1.042,1.042,0,0,0,.694.3c.283.024.443-.231.7-.452.145-.127,1.626-2.039,2.011-2.475.381-.419,1.58-2.056,1.719-2.2a28.955,28.955,0,0,1,2.834-3.317c.421-.452.968-.517.968-.035,0,.368.02.787.02,1.02,0,.156-.3,7.615-.227,10.218.032,1.163-.145,3.209-.145,3.364,0,1.105-1.394.811-1.394,1.416a.446.446,0,0,0,.272.355l2.988-.186a5.318,5.318,0,0,0,1.007.119,13.387,13.387,0,0,1,2.095.359c.039,0,.672.019.672-.327,0-.579-1.1-.43-1.338-1.567,0,0,.108-3.217.162-5.837.073-3.7.385-6.064.24-7.857-.011-.141-.009-.834,0-1.029.033-.653.095-.951.106-1.71.013-.843.182-1.241.727-1.394.37-.095.791-.307.744-.675s-.257-.394-.627-.394a9.241,9.241,0,0,0-1.607-.119,21.815,21.815,0,0,1-2.421-.074c-.579.054-1.261-.134-1.775.288a15.471,15.471,0,0,0-2.1,2.019c-.368.48-1.384,1.678-1.73,2.093a41.261,41.261,0,0,1-2.692,3.17,1.445,1.445,0,0,1-.646.389c-.324.015-.707-.422-1.124-.75-3.379-2.59-6.464-5.258-7.541-6.166-.365-.307-1.714.607-5.362.748a.489.489,0,0,0-.45.627C327.136,198.76,328.608,198.349,328.785,199.838Zm-22.128,16.446c.188.074,2.069.889,2.5,1.114,1.027.543,2.272.962,3.314,1.49.789.413,1.792.852,2.819,1.351.4.2.785.361,1.042.5.115.067.679.3.781.536.19.474-.979.748-.767,1.26.167.411.733.255,1.074.117.14-.056,1.771-.772,1.913-.83l1.126-.452c3.731-1.442,3.243-1.139,3.366-1.167.233-.06.633-.164.776-.218.022-.011.564-.385.406-.685-.268-.435-.947-.262-1.6-.1a4.018,4.018,0,0,1-1.847-.515c-1.124-.5-2.813-1.157-4.627-1.961-.579-.212-1.915-.767-1.963-.819-2.065-.941-3.85-1.721-4.888-2.275-.726-.4-.726-.982-.326-1.835.424-1.023.72-1.833,1.215-2.852.188-.4.463-1.064.716-1.647.244-.562.614-1.436.914-2.062.114-.246.333-.664.432-.925a8.03,8.03,0,0,1,.891-1.332c.381-.406,1.369-.767,1.193-1.239-.1-.27-.316-.223-.651-.262-5.9,2.486-3.7,1.483-5.476,2.2a.563.563,0,0,0-.3.566c.18.6,1.027-.117,1.118.582.02.167-1.163,2.953-1.362,3.589A48.473,48.473,0,0,1,306,214.441,1.182,1.182,0,0,0,306.657,216.283ZM269.84,245.351c.223.307.66.763.886,1.055.491.638.737,1.144,1.217,1.833.541.783,5.117,6.72,5.159,6.765a3.783,3.783,0,0,1,1.09,3.288c-.056.992.785.681.932.413a17.817,17.817,0,0,0,1.036-2.169,9.214,9.214,0,0,0,.467-1.18,16.521,16.521,0,0,0,.448-1.63c.1-.5.251-.928-.223-1.025a.647.647,0,0,0-.7.46.886.886,0,0,1-1.141.212,1.368,1.368,0,0,1-.7-.986,3.152,3.152,0,0,1,.262-1.76l1.336-3.2c.759-1.293,1.057-1.7,1.994-2.088.992-.4,5.984.037,6.309.127.66.19-.086.891.6,1.265.132.069.789.086.789-.151l1.715-2.711a18.712,18.712,0,0,1,1.821-2.173c.065-.1.845-1,.186-1.351-.791-.437-1.036.806-2.024.843-.709.026-1.382.011-2.1,0-.461,0-1.961-.175-2.376-.193-1.676-.06-2.876.078-4.449.019-2.9-.128-6.417-.061-9.141-.188a32.517,32.517,0,0,1-3.729-.026s-.755-.2-.945-.469a3.442,3.442,0,0,0-.649-.958c-.022-.011-.424-.154-.577.108-.649,1.144.8,3.684,1.23,4.17C269.034,244.194,269.507,244.882,269.84,245.351Zm6.395-.5a6.8,6.8,0,0,1,1.76.249c.5.428.255.869-.1,1.507l-1.12,2.138c-.2.42-.683.309-.915.2a18.827,18.827,0,0,1-1.935-2.259c-.283-.363-.91-.956-.768-1.438C273.332,244.674,274.307,244.685,276.235,244.85Zm-2.292,81.912a6.676,6.676,0,0,0,2-.808,9.906,9.906,0,0,0,2.179-1.922,6.636,6.636,0,0,0,1.265-3.57,14.175,14.175,0,0,0-.32-3.046c0-.063.089-.186.115-.153,1.031,1.336,2.413,1.909,3.582,1.472a2.82,2.82,0,0,0,1.55-1.862,4.765,4.765,0,0,0-.021-1.786c-.056-.277-.3-1.094-.424-1.728a26.247,26.247,0,0,0-1.148-2.951l-1.075-2.929-1.468-4.393c-.006-.02-.288-1.468-.934-1.221-.424.158.143,1.814-1.221,2.432a9.187,9.187,0,0,1-2.257.934c-.141.048-.821.286-1.4.487-.653.227-1.414.542-2.5.975-.962.391-1.353.465-3.064,1.142-1.535.6-2.94,1.135-4.238,1.57a15.607,15.607,0,0,1-2.082.62c-.928.253-1.118-.822-1.693-.607-.592.229-.166.739-.115,1l1.079,3.353c.158.4.657,1.676.781,2.022.05.123.482,1.461.528,1.578.132.348.367,1.2.424,1.343.164.409.474,1.077.577,1.317.056.141.5,1.089.954,2.089a9.8,9.8,0,0,0,2.21,3.1A7.121,7.121,0,0,0,273.943,326.762Zm3.487-17.56a13.411,13.411,0,0,0,1.626-.519c.748-.3,1.133.519,1.323.93.409.9.549,1.245.6,1.382.368.956,1.278,3.107-.16,3.809-1.213.6-2.244-1.031-2.789-2-.212-.385-.387-1.031-.793-2.062C277.139,310.279,276.774,309.457,277.429,309.2ZM266.85,320.911a10.3,10.3,0,0,1-1.126-1.7l-.454-1.44c-.058-.145-.3-.984-.4-1.371-.177-.744-.061-2.389,1.008-2.865a8.115,8.115,0,0,1,1.142-.424,3.778,3.778,0,0,0,.746-.352l5.591-2.015c1.514-.071,1.762.8,2.315,2.062a14.72,14.72,0,0,1,.778,2.251,9.66,9.66,0,0,1,.225,3.061,5.967,5.967,0,0,1-3.608,4.836A5.61,5.61,0,0,1,266.85,320.911Zm46.555,23.921c-.329-.149-.785-.434-1.181-.659-.556-.307-1.128-.556-1.753-.932-4.153-2.287-7.273-5.388-9.779-7.3-.463-.346-.646-.093-.731.028-.407.558.889,1.317.251,2.186l-3.453,4.527s-2.994,3.784-5.2,6.622c-.558.716-1.414,1.721-1.643,2.026-.727.921-1.732-.294-2.1.363-.18.309-.123.538,0,.633a20.174,20.174,0,0,0,2.255,2.052c3.537,2.692,4.791,3.278,7.524,5.375a34.968,34.968,0,0,0,3.628,2.024c.551.313.852.374,2.056,1.066.863.493,2.091,1.172,2.432,1.371,1.073.607,1.165.236,1.394-.11a25.876,25.876,0,0,0,1.812-3.044c.011-.022.154-.406-.073-.514-.774-.37-.984.4-2.047.344a10.046,10.046,0,0,1-2.707-.491,27.9,27.9,0,0,1-5.319-2.6,35.617,35.617,0,0,1-2.943-2.393c-1.39-1.111-1.97-2.2-.986-3.522a22.261,22.261,0,0,1,2.112-2.757c.26-.279.992-1.17,1.356-1.276.865-.259,1.688.3,2.51.791.285.167.854.625,1.4.988.454.3,1.354,1.157,1.788,1.52,1.5,1.243.324,2.017.886,2.437a.449.449,0,0,0,.558-.1c.087-.113.6-.874.7-1a11.135,11.135,0,0,1,1.34-1.65,7.07,7.07,0,0,0,.623-.841c.233-.318-.4-.623-.714-.447-.582.32-1.332.175-2.475-.551a28.4,28.4,0,0,1-2.476-1.73c-.789-.683-1.369-.847-1.885-1.814a.88.88,0,0,1,.14-.843c.383-.558,1.051-1.518,1.663-2.3a1.559,1.559,0,0,1,1.139-.726,5.569,5.569,0,0,1,2.363.958c.928.592,1.875,1.62,3.042,2.313a10.507,10.507,0,0,1,2.047,1.554,2.493,2.493,0,0,1,.726,1.537.467.467,0,0,0,.843.087c.528-.863.863-1.468,1.341-2.13C314.176,345.476,313.809,345.035,313.405,344.832Zm-24.472,4.992c.054-.478-.491-.612-.884-.683A8.536,8.536,0,0,1,284.6,347.5a5.783,5.783,0,0,1-1.023-1,8.159,8.159,0,0,1-1.714-2.661,8,8,0,0,1-.249-6.175c.2-.657,1.055-3.014,1.755-3.563.06-.056.2-.266.368,0a18.076,18.076,0,0,0,1.574,2.011,8.557,8.557,0,0,0,3.381,2.3,8.14,8.14,0,0,0,2.259.348,4.42,4.42,0,0,0,2.6-.874,3.977,3.977,0,0,0,1.583-3.141,17.734,17.734,0,0,0-.143-2.354,11.352,11.352,0,0,0-1.635-3.807,21.2,21.2,0,0,0-2.263-3.133c-.506-.67-1.12-1.7-2.192-3.068a16.317,16.317,0,0,1-1.515-2.346c-.292-.528-.705-.339-.755-.084-.19.94.283,1.522-.344,2.011-1.4,1.075-2.227,1.431-3.891,2.609-1.888,1.341-7.9,5.4-8.032,5.487-.439.316-.874.582-1.823,1.222-.694.53-1.062.424-1.4.108a.818.818,0,0,0-.832-.143c-.337.2-.11.629.091.874a21.757,21.757,0,0,1,2.1,2.86c.093.126.834,1.239.9,1.377.461.951,1.3.5,1.128-.16s-.207-.854.216-1.157c0,0,3.256-2.314,5.219-3.6,1.057-.688,3.911-2.629,5.029-3.386,1.142-.774,1.781-1.263,1.888-1.332.705-.433,1.075-.713,1.137-.742.629-.3,1.016.1,1.447.7,1.965,2.737,1.431,1.8,2.216,3.377.958,1.909.582,3.881-.943,4.845a3.644,3.644,0,0,1-3.677.022,9.4,9.4,0,0,1-2.88-2.78c-.532-.713-.886-1.278-1.466-.941a7.892,7.892,0,0,0-1.781,1.533,11.877,11.877,0,0,0-2.009,3.124c-1.021,2.77-1.159,4.08-.867,6.067a16.289,16.289,0,0,0,.534,2.275,9.128,9.128,0,0,0,2.586,3.669,9.025,9.025,0,0,0,2.443,1.719,8.214,8.214,0,0,0,3.89.808C288.18,350.378,288.9,350.112,288.933,349.824Zm-28.4-86.952c.223-.26,1.133-1.23,1.684-1.059l12.351,3.574,3.477,1.018c.153.1.413.154.558.257.733.495.087,1.513.742,1.71.262.086.476-.2.566-.461.048-.158.283-1.2.6-2.329,0,0,1.388-4.415,2.568-7.316a26.164,26.164,0,0,1,1.421-3.17c.011-.069.476-.971.549-1.105s.551-.843.62-.981c.177-.326.357-.517.528-.843.127-.231-.091-.787-.584-1.081,0,0-2.236-1-2.823-1.3a.5.5,0,0,0-.739.623c1.094,2.333.59,3.717-.1,5.571-.186.5-.735,1.848-1,2.475a9.025,9.025,0,0,1-1.846,3.236,1,1,0,0,1-.655.234l-5.5-1.509c-.262-.011-4.586-1.293-4.731-1.33s-.294-.128-.445-.169-.521-.171-.755-.246a13.5,13.5,0,0,1-1.449-.4c-.2-.056-.815-.262-.969-.3-.837-.264-1.159-.244-1.524-.811-.1-.154-.22-1.652-.672-1.8a.542.542,0,0,0-.506.279l-.62,2.054c-.047.145-.253.923-.3,1.064s-.3.826-.359,1.087a9.606,9.606,0,0,0-.714,2.558c-.028.229.033.56.229.618A.44.44,0,0,0,260.533,262.872Zm1.235,24c.147,0,.86.032,1.487.045.7.017,1.52,0,2.692-.017,1.023-.028,1.42.045,3.269.024,1.641-.011,3.156-.019,4.525.039a16.455,16.455,0,0,1,2.16.154c.964.106.752,1.176,1.369,1.176s.413-.629.461-.9l-.1-3.866c0-.424.1-1.189.1-1.561,0-.132.143-1.807.143-1.935,0-.361.048-1.286.048-1.446,0-.437.127-1.107.127-1.371a12.086,12.086,0,0,0,.158-2.255,7.492,7.492,0,0,0-.912-3.507,7.548,7.548,0,0,0-8.211-3.995,10.665,10.665,0,0,0-2.573.867,7.131,7.131,0,0,0-2.625,3.038,14.184,14.184,0,0,0-.8,2.956c-.02.054-.141.141-.158.1-.486-1.611-1.36-2.649-2.614-2.649a2.538,2.538,0,0,0-1.965,1.176,9.66,9.66,0,0,0-.778,1.758c-.093.257-.175.973-.292,1.615a26.759,26.759,0,0,0-.327,2.858l-.087,3.126.009,5c0,.026-.259,1.474.435,1.474.454,0,.513-1.743,2.015-1.84A9.023,9.023,0,0,1,261.769,286.873Zm2.9-9.416a9.734,9.734,0,0,1,.893-2.934,6,6,0,0,1,5.115-3.236,5.2,5.2,0,0,1,5.167,4.13,12.37,12.37,0,0,1,.344,1.985l-.1,1.5c0,.166-.071,1.033-.121,1.421-.115.755-.809,2.255-1.983,2.316a8.832,8.832,0,0,1-1.215,0,4.011,4.011,0,0,0-.826.056l-5.948-.11c-1.433-.48-1.354-1.375-1.422-2.741A15.447,15.447,0,0,1,264.671,277.457Zm-4.731,5.025c-.8.013-.865-.886-.9-1.343-.058-.982-.058-1.345-.058-1.5,0-1.033.192-3.5,1.52-3.5,1.356,0,1.729,1.766,1.881,2.86.058.435,0,1.1.006,2.21-.08.469-.039,1.371-.737,1.371A13.429,13.429,0,0,0,259.94,282.482Z" transform="translate(-232.68 -171.252)"/></svg>