<svg xmlns="http://www.w3.org/2000/svg" width="423" height="98"><defs><clipPath id="a"><path data-name="Rectangle 12" transform="translate(853 489)" fill="#fff" d="M0 0H423V98H0z"/></clipPath></defs><g data-name="Mask Group 2" transform="translate(-853 -489)" clip-path="url(#a)"><g transform="translate(853.324 503.5)" fill="#fff" fill-rule="evenodd"><path data-name="Path 11" d="M315.868 59.052c-.257-.572-.531-2.529-1.111-2.872-.065-.294-.331-.486-.425-.768-.086.049-.147-.118-.184-.159a4.28 4.28 0 0 0-.633-.519c.045-.049-.339-.327-.523-.474-.8-.474-1.63-.613-2.386-1.042a27.307 27.307 0 0 1-2.889-.29c-.016-.053-.339-.012-.339 0a14.678 14.678 0 0 0-2.5.372c-3.3 1.2-6 4.1-5.847 7.816.074.041 0 .176 0 .229a7.02 7.02 0 0 0 .078.928c0 1.585 1.671 3.216 2.717 4.176.037-.008.2.008.159.082a10.2 10.2 0 0 0 .911.507c.135.049.907.319.96.372.2-.045 1.3.355 1.373.253a1.2 1.2 0 0 0 .633.078c.168.523 4.646-.086 5.361-.658.633.2 3.354-2.578 3.641-3.036a8 8 0 0 0 .531-1.177c.016-.033.188-.18.074-.216a.966.966 0 0 0 .2-.691l.118-.184v-.272a7.619 7.619 0 0 0 .159-1.81c-.002-.204-.135-.629-.078-.645zm-2.627 1.487c-.118.245-.02.552-.078.821 0 0-.38 1.205-.384 1.344-.041.016-1.683 3.228-3.24 3.109a1.025 1.025 0 0 1-.8.2l-.131.082c-.5-.029-1.479.188-1.908-.078l-.654-.09c-.033-.008-.139-.123-.168-.033-1.442-.36-3.493-2.116-3.526-3.681-.923-2.578.621-6 2.9-7.273.556.09 1.091-.282 1.643-.4l.037-.041h.915c4.168-.147 4.654 3.837 5.283 4.449a7.544 7.544 0 0 0 .114 1.455.1.1 0 0 0 0 .136z"/><path data-name="Path 12" d="M251.388 64.42c-2.165.135-4.351-.147-6.5 0l-.163.286v.094l.188.212a2.277 2.277 0 0 1 1.822 1.553l.037 1.173c.078 3.228-13.757 7.048-13.487-5.16a7.038 7.038 0 0 1 .486-2.223 13.139 13.139 0 0 1 1.357-2.684c1.83-2.541 6.75-3.044 9.365-2.039a7.544 7.544 0 0 1 2.586 1.912c.2.266.5 1.005.919.768a1.818 1.818 0 0 0 .1-.3c.029-.2-.119-4.609-.192-4.715l-.282-.016c-.956.646-1.765 1.038-2.93.364-1.03.061-2.292-.413-3.363-.441-2.321-.065-5.969.748-7.837 2.26a11.776 11.776 0 0 0-3.571 4.7c-1.7 3.71.1 10.26 4.494 11.387.237.061.5.335.764.417a16.361 16.361 0 0 0 5.451.85 24.53 24.53 0 0 0 1.463-.074 15.827 15.827 0 0 0 2.823-.519c.879-.237 5.459-2.149 5.361-2.872a2.683 2.683 0 0 1-.453-3.093c.481-1.21 2.348-1.309 1.562-1.84z"/><path data-name="Path 13" d="M290.146 66.406c.335 1.667-.556 3.118-2.7 3.951-2.288.887-6.868.719-9.418-1.557a7.939 7.939 0 0 1-1.835-4.311c.139-1.777-.139-3.865 1-5.451-.012-.045 0-.253.1-.212 2.133-3.2 4.531-4.025 8.176-3.322 2.006.384 2.558 1.234 4 2.578a5.225 5.225 0 0 0 .846.686 40.438 40.438 0 0 0-.094-4.972c-.482.613-1.361.519-2.055.5-.8-.658-4.078-1-5.254-.981-.008-.106-.184.008-.2.049a11.143 11.143 0 0 0-4.453 1c-3.571 1.357-6.2 5.916-5.8 10.37a9.078 9.078 0 0 0 2.1 4.756l.286.135c.576 1.638 4.294 2.966 5.851 3.228a7.865 7.865 0 0 1 1.348.012c.417.033 2.648 0 2.762.053l.454-.1c.033.1.944-.053 1.316-.143 1.688-.707 3.375-1.14 4.58-3.379.442-.835.63-4.095-1.01-2.89z"/><path data-name="Path 14" d="M221.575 69.834c-.049-3.052-.135-6.092-.106-9.144a44.932 44.932 0 0 1 .082-5.7c.119-.135.135-.347.27-.47.3-.27.8-.217 1.156-.47l.029-.335c-.429-.172-4.752-.331-5.148-.025l.065.372c.262.315 1.115.184 1.177.637.11.891.127 3.142.127 3.142a37.768 37.768 0 0 0-.008 1.933c.041 1.544.02 3.158-.082 4.695-.012.192.012.335-.225.368-.666.094-11.216-9.99-12.364-11.2-.233-.061-1.459-.135-1.459-.135a23.227 23.227 0 0 1-2.558-.033c-1.107.833 1.267.682 1.4 1.708-.008 3.252-.012 6.533-.131 9.786-.025.723-.073 1.45-.09 2.178l-.029 2.072c-.033.817.311 2.509-.793 2.836l-.159.306.123.29c.674 0 1.348-.012 2.018 0l1.181.029.666.053c.883.029-.666-.981-.666-1.434 0-.315-.073-1.557-.073-1.61l-.012-.127.028-1.585c.021-.6.082-1.205.065-1.8-.033-1.23-.053-6.317.086-7.056l.208-.2h.335a53.887 53.887 0 0 1 4.315 3.812c.11.02.249.086.27.212.968.989 2.19 1.835 3.105 2.848a69.911 69.911 0 0 0 6.272 6.509 3.843 3.843 0 0 0 2.174.535c1.075-.946-1.2-.002-1.249-2.997z"/><path data-name="Path 15" d="M191.042 53.562l-.086-.053-.617-.008-.11.11.008.364c.613.392.731.184 1.275.833.065 4.07-.074 8.139-.037 12.213l-.053.078a74.212 74.212 0 0 1-.012 3.947c-.241.323-1.982 1.659-.764 1.61 1.544-.061 3.048-.07 4.576-.061.907 0 1.5.114.584-.735a.887.887 0 0 1-.731-.466c-.082-.282-.114-6.386-.123-7.142l.053-.135c-.053-.11-.029-2.578-.033-3l-.049-.086a25.53 25.53 0 0 0 .11-4.474c-.094-.049-.061-.944-.061-.944a1.429 1.429 0 0 0 .155-.862c.225-.253 1.483-.711 1.3-1.071a44.57 44.57 0 0 0-5.385-.118z"/><path data-name="Path 16" d="M185.677 53.325l-.053.053a2 2 0 0 0-.956.106l-.135-.057-.106.057-.131-.057h-.192a3.671 3.671 0 0 1-1.054-.053l-.417.172a.61.61 0 0 0-.065.245 1.99 1.99 0 0 0 .535.4 9.194 9.194 0 0 1-.47 1 .586.586 0 0 1-.212.372 6.176 6.176 0 0 1-.7 1.634l.053.106c-.123.172-.237.6-.364.7-.045.347-.539 1.25-.494 1.455-.233.262-.233.682-.458.878a10.993 10.993 0 0 1-.96 2.288 5.6 5.6 0 0 1-.176.658.957.957 0 0 0-.213.531c-.413.478-.429 1.348-.862 1.867a.512.512 0 0 1-.56-.065c-.065-.184-1.009-2.031-1.062-2.072l-.012-.282c-.368-.409-.735-1.806-1.046-2.055-.02-.151-.09-.29-.123-.445l-.094-.1c.045 0 .065-.078.053-.114l-.262-.237a1.836 1.836 0 0 0-.425-.9 1.286 1.286 0 0 0-.372-.8c-.106-.543-.838-1.365-.85-1.7a1.045 1.045 0 0 0-.176-.662 3.367 3.367 0 0 1-.376-.425c-.936-.384-.964 1.679-1.3 1.912-.086.372-1.6 3.865-1.7 3.931a5.23 5.23 0 0 1-.217.662c-.544.6-1.614 4.029-2.288 4.106l-.527-.233c-.041-.323-.257-.6-.27-.932l-.155-.078c-.1-.474-.3-.981-.441-1.455a4.63 4.63 0 0 1-.531-1.328l-.139-.135a39.254 39.254 0 0 0-1.647-4.674 2.064 2.064 0 0 0-.074-.445l-.09-.086c-.123-.445-1.034-2.68-.764-2.807l.094-.147a3.4 3.4 0 0 0 .707-.229l.065-.172-.327-.29h-.609a.079.079 0 0 0-.143 0c-.155 0-.69.041-.8-.053a19.8 19.8 0 0 1-3.081 0h-.977l-.217.29c0 .429.58.49.879.613.086.188.339.212.4.413l.192.139c0 .041 1.287 3.089 1.328 3.13 0 .94 3.011 7.367 3.048 8.572a3.14 3.14 0 0 1 .315.895l.147.147a7.158 7.158 0 0 0 .58 1.593l.016.282.09.09a22.5 22.5 0 0 0 1.606 4.012h.359a19.548 19.548 0 0 1 1.017-2.076l.057-.4c.335-.245 1.316-3.289 1.79-3.808.02-.262.3-.678.282-.817a15.987 15.987 0 0 0 1.009-2.227c.417-.372.388-1.271.834-1.63l.069-.282.278-.233c.944 0 .417.188.878.6 0 .069 2.877 7.383 2.983 7.51l-.053.094a12.344 12.344 0 0 1 1.009 3l.11.106h.253c.531-.707.523-1.7 1.111-2.353a5.392 5.392 0 0 1 .69-1.483c.151-1.066.94-2.141 1.238-3.207l.086-.086a2.533 2.533 0 0 1 .425-.846c.433-1.393 1.6-2.827 1.827-4.217l.143-.143c.184-1.361 2.263-4.331 2.455-5.643l.09-.09c.38-1.557 1.156-.919 1.553-1.565l-.172-.266a1.233 1.233 0 0 0-.756-.159z"/><path data-name="Path 17" d="M152.668 67.917c-.437-.1-1.071.944-1.508 1.169a9.1 9.1 0 0 1-2.407.772 17.106 17.106 0 0 1-5.9.388c-1.316-.061-3.207-.429-3.207-2.1 0-.948-.1-4.249.355-4.9.486-.678 1.545-.715 2.3-.772a21.917 21.917 0 0 1 3.734.139c1.311.119 1.058.4 1.7 1.185a.341.341 0 0 0 .294.143c.131-.029.364-.225.364-.372-.037-1.369.049-2.7.049-4.057 0-.429-.625-.163-.772.057a2.365 2.365 0 0 1-2.133.94c-1.062.086-5.381.527-5.532-.972-.078-.793-.229-3.305.417-3.784 1.1-.813 5.982-.588 7.338-.556 1.516.041 2.533.147 3.628 1.246a.427.427 0 0 0 .715-.306c.511-3.939-.4-2.938-3.816-2.958-2.48-.012-6.742 0-9.222-.041a36.1 36.1 0 0 0-3.816-.069c-1.7.159.862 1.222.854 1.908l-.078 5.258c-.041 2.586-.155 5.181-.221 7.771-.025.8-.041 1.614-.114 2.407-.082.883-2.341 1.25-1.009 1.879.086.041 12.331-.139 14.493-.082.858.02 1.716.057 2.574.053.7 0 1.017.045 1.078-.69.034-.477.401-3.529-.158-3.656z"/><path data-name="Path 18" d="M100.434 63.717c-.1-.249-.241-.535-.339-.744-.065-.123-.458-.637-.535-.756a6.477 6.477 0 0 0-2.525-2.255 9.08 9.08 0 0 0-2.733-.744c-.053-.012-.09-.1-.094-.139 1.491-.449 2.447-1.254 2.447-2.407a2.018 2.018 0 0 0-1.058-1.63 7.717 7.717 0 0 0-1.577-.813 12.517 12.517 0 0 0-1.659-.494 23.777 23.777 0 0 0-2.664-.274l-2.9-.09-4.515.143c-.021 0-1.361-.241-1.361.4 0 .413 1.61.47 1.7 1.851a8.118 8.118 0 0 1 .053 2.243c0 .143-.11.768-.11.915s.057.311.074.49c.045.065-.045.159-.074 5.336-.045 5.177.1 1.736.033 4.266a14.621 14.621 0 0 1-.147 1.99c-.09.878-1.079.686-1.079 1.254 0 .584.576.384.821.425l3.636.057c.4 0 .8.114 1.136.114.123 0 1.924-.045 2.047-.045.339 0 1.2-.008 1.34-.008.413 0 .748-.118.989-.118.143 0 1.071.057 2.088 0a7.8 7.8 0 0 0 3.44-.948 7.613 7.613 0 0 0 3.869-5.283 5.632 5.632 0 0 0-.094-1.72 3.663 3.663 0 0 0-.209-1.016zm-13.688-7.383c-.012-.74.825-.8 1.242-.825.907-.057 1.25-.057 1.393-.057.952 0 3.236.176 3.236 1.393 0 1.25-1.626 1.593-2.648 1.732-.4.053-1.013 0-2.039 0-.433-.069-1.267-.029-1.267-.674a12.386 12.386 0 0 0 .083-1.569zm6.141 14.6a1.088 1.088 0 0 0-.188.131 12.212 12.212 0 0 1-1.25.2h-1.348c-.143 0-.727-.221-1.091-.27-.7-.1-2.345-.674-2.411-1.745a7.471 7.471 0 0 1 .008-1.124 3.049 3.049 0 0 0-.057-.756l.106-5.467c.441-1.32 2.19-.968 3.15-1.275 1.136.057 1.451.057 1.594.057a17.756 17.756 0 0 1 2.721.813 5.758 5.758 0 0 1 2.987 4.707 4.99 4.99 0 0 1-4.221 4.732z"/><path data-name="Path 19" d="M108.177 53.568l.057-.029c-.07.016-.082.029-.057.029z"/><path data-name="Path 20" d="M130.526 70.386a4.933 4.933 0 0 1-2.75 1.136 7.375 7.375 0 0 1-8.127-4.114 7.127 7.127 0 0 1-.625-3.15c-.024-.368.437-.409.691-.441a10.435 10.435 0 0 0 2.542-.731 7.61 7.61 0 0 1 1.078-.6 4.14 4.14 0 0 0 1.937-4.094 2.044 2.044 0 0 0-.163-.776 2.384 2.384 0 0 0-.213-.73 5.589 5.589 0 0 0-1.949-1.924c-2.59-1.581-6.554-1.373-9.324-1.312-1.111.029-2.93.02-4.037-.053l-.96-.061c-.012 0-.384.041-.454.033-1.389.6 1.164 1.091 1.222 1.8a4.77 4.77 0 0 0 .041.519c.147 3.743.1 7.567.065 11.318a32.638 32.638 0 0 1-.135 3.849c-.041.319-.47.65-.748.744-.8.274-.674.9-.221.887 1.912-.082 4.294-.1 6.194-.024.327.008.3-.67-.025-.8-.449-.184-1.16-.437-1.165-1.05l.016-1.81.012-7.322a41.167 41.167 0 0 1 .192-5.361 1.7 1.7 0 0 1 .417-.74c.253-.735 2.766-.278 4.041 0a6.7 6.7 0 0 1 2.742 1.328c.147.335.494.564.637.878.433.927.5 2.754-.482 3.4-.564 1.119-3.4 1.508-4.449 1.532a.609.609 0 0 0-.576.441 14.426 14.426 0 0 0 .911 5.144c2.231 5.344 8.347 5.455 12.2 4.139.531-.18 1.7-1.136 1.79-1.7.203-.242-.19-.446-.325-.355z"/><path data-name="Path 21" d="M264.113 33.678c-.523-.229-1.238-.163-1.585-.641-.274-.02-.392-.315-.58-.449a3.575 3.575 0 0 1-1.242-1.557 23.159 23.159 0 0 1-1.168-2.2c-.278-.413-.981-1.871-1.753-3.183-.012-.127-1.054-1.72-1.377-2.456a21.089 21.089 0 0 1-1.136-1.941c-.008-.082-1.079-2.039-1.2-2.19a18.447 18.447 0 0 1-1.046-1.573 10.768 10.768 0 0 0-.833-1.651 12.154 12.154 0 0 1-1.254-2.047c-.531-.94-1.638-2.966-1.884-3.334-1.2-1.81-2.644-4.682-2.754-4.9a9.078 9.078 0 0 1-.474-1.287c-.041-.155-.127-.323-.163-.429a3.275 3.275 0 0 1 .184-2.161c.147-.188.351-.4.515-.6.02-.172.11-.4.11-.507a.546.546 0 0 0-.494-.539c-.241 0-.421-.123-.646.119-.262.1-.474.319-.719.433a10.674 10.674 0 0 0-1.716 1.982c-.1.278-1.487 2.394-2.153 3.681-.012.082-1.14 2.092-1.156 2.219-.282.515-1.046 1.818-1.087 1.9-.139.282-.981 1.9-1.152 2.251-.045.1-.736 1.5-.752 1.589a13.73 13.73 0 0 1-.723 1.483 10.864 10.864 0 0 0-.87 1.312c-.106.2-.948 2.023-1.193 2.546-.118.249-1.336 2.46-1.475 2.958-.069.041-1.459 2.966-1.761 3.334a8.162 8.162 0 0 1-.846 1.736 4.749 4.749 0 0 1-.6 1.169 14.472 14.472 0 0 1-1.54 2.889 5.63 5.63 0 0 1-1.075 1.214 5.1 5.1 0 0 1-1.213.7 2.23 2.23 0 0 0-.8.372.752.752 0 0 0 0 1.075s.8.188.878.188h1.263a7.4 7.4 0 0 1 1.446-.086 6.565 6.565 0 0 0 .85 0h.54c.11 0 2.027.086 2.133.086h1.128a1.382 1.382 0 0 1 .527-.2c.159-.241.2-.2.2-.47 0-.184-.1-.159-.2-.474-.2-.172-.462-.2-.637-.4a7.382 7.382 0 0 1-.515-.7 2.474 2.474 0 0 1 0-1.614 5.228 5.228 0 0 1 .323-1.144c.086-.372.723-1.8 1.034-2.59.041-.106.278-.552.323-.633a3.3 3.3 0 0 1 1.046-1.091 4.562 4.562 0 0 1 1.075-.372h5.859c.033.037.008.09.241 0h4.319c.11 0-.024.09.18 0 0 0 2 .057 2.043.057l.981.094a2.272 2.272 0 0 1 .932.564 4.455 4.455 0 0 0 .74.756 1 1 0 0 0 .114.29c.016.049.306.376.331.425.106.266.4.658.5.911.237.454.866 1.642.981 1.773.041.3 1.14 2.051 1.14 2.844 0 .744-1.459.613-1.438 1.418.094.184.016.413.531.646h1.961l4.188-.18h2.288a4.79 4.79 0 0 1 1.034.086h1.111c.078-.184.347-.082.429-.106.241-.168.384-.315.384-.564.002-.355-.419-.598-.652-.831zm-17.328-12.135c-.364.082-.642.086-.981.188l-.8.049h-1.211c-.11 0-2.386.045-2.386.045l-2.243-.09h-.74c-.319-.086-.674.008-.887-.233a7.333 7.333 0 0 1-.376-.654l.164-1.075a2.345 2.345 0 0 1 .49-.842c.278-.56.592-1.205.654-1.357a15.234 15.234 0 0 0 .838-1.642c.1-.278.752-1.532 1.259-2.509a4.739 4.739 0 0 1 .752-.94.726.726 0 0 1 .576-.282 1.326 1.326 0 0 1 .735.282 6.853 6.853 0 0 1 .952 1.021 5.683 5.683 0 0 0 .719 1.079 8.008 8.008 0 0 0 1.258 2.067 7.324 7.324 0 0 0 1.16 2.059c.176.384.887 1.385.907 1.528.14.935-.55 1.143-.84 1.306z"/><path data-name="Path 22" d="M221.706 2.936a15.871 15.871 0 0 0-1.593.094s-3.567-.045-5.287 0a1.768 1.768 0 0 0-.588.617c-.932.356-4.155 4.192-5.418 5.144-.74 1.712-2.815 2.268-3.644 3.914a12.639 12.639 0 0 0-2.059 1.81c-.842.372-2.292-1.381-2.893-1.777-.123-.233-4.27-3.951-4.58-4.11l-1.218-1.03c-1.185-.49-2.823-2.868-3.914-3.355-.441-1.009-1.316-.756-2.251-.854l-3.134-.09-.977.094c-1.152.012-1.626-.016-2.783 0-.768-.094-.278.621-.278.621 1.1.127 1.888 1.083 2.676 1.826.033.985-.016 12.049-.167 12.347.147.4-.11.825.094 1.209 0 0-.041 7.04-.037 7.649 0 0-.253 3.187-.253 4.6 0 2.28-.85 1.688-1.99 3.134l.294.425a1.365 1.365 0 0 0 .874.025l3.048-.094s1.924.069 2.68.086c.944.127 1.038-.715.364-.981a1.713 1.713 0 0 1-1.52-1.2c-.082-.466-.09-11.122.037-11.9l-.09-.225a8.871 8.871 0 0 1 .176-2.672l-.086-1.855.09-2.039a20.968 20.968 0 0 1 0-3.044l.143-.911c.114-.458.535-.347 1.263.339.7.576 2.476 1.81 4.748 3.6 1.136 1.164 4.809 3.967 5.389 4.944.752.4 1.933 1.663 2.868 1.222.887-.421 2.1-2.255 3.056-2.966l.061-.147a6.624 6.624 0 0 0 1.524-1.438l.208-.024a6.755 6.755 0 0 1 1.614-1.438c.5-.789 1.683-1.344 2.035-2.125a4.216 4.216 0 0 0 1.7-1.344l.572-.3.057-.233.948-.637.862-.47.3.936v5.859a30.176 30.176 0 0 0 0 4.082 19.928 19.928 0 0 0-.18 3.9s-.033 4.564-.033 6.9c-.184.842.074 1.847-1.07 2.725-.417.025-.695.376-1.03.576l-.106.315c.212.617 1.083.625 1.569.384a8.6 8.6 0 0 0 2.1 0l1.81.02c1.867.094 5.1.466 5.1-.286.037-.74-1.087-.927-1.275-.927-.838-.372-.789-1.769-.789-1.769s.041-1.8.09-2.484l-.09-.155a12.165 12.165 0 0 0 0-2.6c.364-.7-.049-3.081.09-3.992-.045-1.516.266-10.8-.09-11.514.208-.384-.049-2.243.249-5.826.1-1.173 1.459-1.189 2.349-1.5l.09-.327c-.116-.77-.565-.958-1.705-.758z"/><path data-name="Path 23" d="M32.96 20.138c-.167-.421-.409-.9-.576-1.25-.11-.217-.821-1.054-.9-1.283-.768-2.112-2.525-2.954-4.262-3.808a15.386 15.386 0 0 0-4.617-1.254c-.094-.02-.155-.168-.159-.241 2.517-.752 4.131-2.112 4.131-4.057 0-1.1-.621-1.9-1.786-2.754a12.779 12.779 0 0 0-2.66-1.373 20.884 20.884 0 0 0-2.8-.833 40.35 40.35 0 0 0-4.5-.466l-4.895-.147-7.624.241c-.041 0-2.3-.409-2.3.67 0 .7 2.725.8 2.876 3.13.29 4.417.1 2.611.1 3.787 0 .245-.192 1.3-.192 1.54s.094.531.123.834c.077.106-.078.27-.123 9.013-.073 8.744.167 2.925.061 7.2a24.2 24.2 0 0 1-.253 3.359C2.449 33.933.782 33.602.782 34.562c0 .989.977.65 1.385.723l6.145.094c.67 0 1.34.192 1.92.192.2 0 3.248-.069 3.453-.069.576 0 2.027-.02 2.268-.02.695 0 1.254-.2 1.667-.2.237 0 1.8.094 3.526.008a13.376 13.376 0 0 0 5.814-1.61c2.554-1.271 6.092-4.915 6.533-8.911a9.851 9.851 0 0 0-.155-2.913 6.317 6.317 0 0 0-.378-1.718zM9.843 7.671c-.025-1.25 1.393-1.344 2.1-1.393 1.532-.1 2.113-.1 2.349-.1 1.61 0 5.471.3 5.471 2.358 0 2.112-2.754 2.684-4.474 2.925-.674.09-1.712-.008-3.444 0-.736-.118-2.141-.049-2.141-1.14a20.347 20.347 0 0 0 .139-2.65zm10.37 24.662c-.086.065-.266.147-.315.225a20.5 20.5 0 0 1-2.112.331h-2.279c-.241 0-1.23-.372-1.843-.458-1.185-.168-3.959-1.136-4.069-2.95a13.771 13.771 0 0 1 .012-1.892 5.477 5.477 0 0 0-.094-1.279l.18-9.234c.744-2.227 3.7-1.638 5.316-2.153 1.92.094 2.452.094 2.693.094a29.634 29.634 0 0 1 4.593 1.377 9.716 9.716 0 0 1 5.05 7.943 8.431 8.431 0 0 1-7.132 7.993z"/><path data-name="Path 24" d="M370.696 27.978c-.735-.168-1.806 1.593-2.55 1.973a15.474 15.474 0 0 1-4.061 1.308 60.3 60.3 0 0 1-14.484.654c-2.219-.1-5.418-.727-5.418-3.547 0-1.6-.168-7.175.6-8.27.821-1.152 2.607-1.209 3.878-1.307a37 37 0 0 1 6.309.233c2.215.2 1.785.686 2.872 2.006a.58.58 0 0 0 .49.237c.225-.045.621-.38.613-.629-.061-2.308.086-4.552.086-6.848 0-.723-1.058-.282-1.3.094-.887 1.34-2.063 1.471-3.6 1.589-1.794.143-9.091.882-9.344-1.651-.131-1.332-.388-5.577.707-6.382 1.851-1.373 7.085-1 9.385-.936 2.562.065 4.278.249 6.121 2.1a.725.725 0 0 0 1.214-.511c.858-6.656-.67-4.968-6.447-5-4.192-.029-8.376-.012-12.568-.074a61.81 61.81 0 0 0-6.443-.118c-2.86.274 1.459 2.063 1.442 3.232l-.135 8.87c-.065 4.372-.257 8.752-.376 13.124-.033 1.344-.061 2.729-.184 4.065-.139 1.5-3.955 2.116-1.7 3.171.143.07 25.328-.229 28.985-.135 1.446.037 2.9.1 4.343.094 1.185 0 1.716.069 1.822-1.169.066-.8.687-5.96-.257-6.173z"/><path data-name="Path 25" d="M386.97 6.736c2.051-1.021 7.8-.8 9.765.376.253.151 2.2 3.207 2.276.666.037-1.23.421-4.768-1.295-4.825-7.04-.241-14.2.123-21.255.045l-8.454-.094c-.6-.008-1.638.053-1.638.891 0 1.426-.262 2.9-.233 4.3a.733.733 0 0 0 1.312.417c.482-.6.539-.874 1.279-1.287 1.6-.887 10.051-1.912 10.255.727.245 3.118 0 6.353 0 9.483 0 4.78-.094 9.561-.094 14.341 0 2.545-2.1 2.137-2.1 2.991 0 .568.511.625.981.654.989.057 2.031-.221 3.02-.245 2.112-.033 4.229.18 6.325.151.715-.012 1.291-.682.6-1.169-1.41-1-1.8-.588-1.957-2.754-.523-7.064.041-14.358.041-21.443.004-1.37-.217-2.535 1.172-3.225z"/><path data-name="Path 26" d="M64.744 28.505a14.089 14.089 0 0 1-10.231 4.11 10.829 10.829 0 0 0-2.027 0c-1.949-.294-6.823-.294-7.828-2.219l-.425-15.4c-.041-1.532-.053-8.838.592-9.577.462-.531 2.349-.94 2.374-1.83l-.633-.617-3.359.02c-2.513.033-5.12-.2-7.616-.094-.278.012-.825.286-.813.621.024.613 2.664 1.467 2.684 2.746.11 8.527.233 17.058.315 25.586.024 2.55-2.354 1.593-2.354 2.84 0 1.042 4.139.445 4.7.445 8.311 0 16.638.184 24.944.184 1.769 0 1.119-5.234 1.075-6.26a.78.78 0 0 0-1.398-.555z"/><path data-name="Path 27" d="M124.908 4.587a2.016 2.016 0 0 1 2.1 2.2s.061 4.061-.021 4.83c-.208 2.055-.029 8.9-.029 8.9s.1 3.056-.029 4.082-.041 7.5-.041 7.5c0 1.773-2.1 1.516-2.08 2.562.012.5.723.613 1.115.613h8.458c.139 0 1.287-.163 1.275-.707-.021-1.021-2-.445-2.043-2.676 0 0-.016-5.7-.041-6.358s-.033-7 .008-7.289c.078-.56.033-5.316.09-5.7.163-1.12.016-5.226.016-5.226 0-.727-.2-1.618.253-2.133a9.46 9.46 0 0 1 1.561-1.062 1.064 1.064 0 0 0 .286-.752c-.008-.437-.31-.613-.817-.613-.237 0-1.136.188-1.373.188s-1.471.041-2.807.147c-1.213.09-3.13-.114-3.363-.1a14.054 14.054 0 0 1-2.423-.049c-.568 0-.854.294-.887.609a.975.975 0 0 0 .792 1.034z"/><path data-name="Path 28" d="M158.355 35.231a11.37 11.37 0 0 0 1.25.135c.037 0 1.038-.225.993-.74-.139-.8-1.213-.936-2.243-1.075a9.391 9.391 0 0 1-2.815-1.23 72.447 72.447 0 0 1-5.736-5.659 6.554 6.554 0 0 1-1.071-1.148c-2.419-2.558-7.1-7.489-7.007-7.706a9.47 9.47 0 0 1 2.3-2.688c1.2-1.238 2.113-2.235 3.42-3.424.494-.462 1.287-1.271 1.986-1.969s1.732-1.724 2.533-2.468c.306-.282.854-.752 1.16-1.083a11.95 11.95 0 0 1 2.055-1.4c.793-.376 2.427-.327 2.447-1.111.008-.449-.319-.5-.788-.752-9.945.172-6.178 0-9.169 0a.861.861 0 0 0-.76.641c-.094.985 1.54.421 1.262 1.5-.065.253-3.31 3.694-4.061 4.4-3.216 3.044-5.516 5.92-9.062 8.862a.992.992 0 0 0-.147 1.45c.891.842 2.946 3.142 3.428 3.722 1.152 1.381 2.272 2.161 3.461 3.555.891 1.05 2.072 2.264 3.256 3.587.474.519.927.972 1.209 1.328.131.163.813.817.813 1.234 0 .8-1.843.507-1.843 1.381 0 .695.915.789 1.479.789.237 0 3.007-.086 3.244-.086s1.418-.008 1.888-.008c6.216.085 6.33-.062 6.518-.037z"/><path data-name="Path 29" d="M87.302 35.239c.184 0 2.01.319 1.965-.846-.057-1.406-1.916-.727-2.754-2.01-.6-.923-1.124-1.835-1.683-2.8a130.99 130.99 0 0 1-1.451-2.476c-1.263-2.292-2.415-3.763-3.579-5.912-2.162-3.962-5.062-8.587-7.062-12.313a37.3 37.3 0 0 1-2.435-4.9 3.474 3.474 0 0 1-.049-1.626 5.353 5.353 0 0 0 .842-1.593c0-.037-.094-.707-.564-.707-1.655 0-4.163 3.845-4.572 4.768-.458 1.017-1.115 2.133-1.561 2.913-.29.515-.646 1.442-.915 1.945-.584 1.107-1.14 1.794-1.794 2.917-.76 1.283-1.385 2.97-2.133 4.139-.151.221-.768 1.81-.932 2.055-.8 1.258-3.187 6.411-3.878 7.706a3.826 3.826 0 0 1-3.363 2.431c-1.455.584-.466 1.773 0 1.585a18.721 18.721 0 0 1 2.942.213 19.757 19.757 0 0 1 2.194-.213c.233 0 2.48-.274 2.713-.274.2 0 1.4-.274 1.4-1.034 0-.838-1.532-1.017-1.54-1.03a2.741 2.741 0 0 1-.421-.838 4.6 4.6 0 0 1 .282-1.777c.564-.907 1.638-.932 2.521-1.115l8.682.09c1.553.119 3.375-.172 4.65.76 1.324.981 3.579 6.815 3.718 7.322.278 1.025-1.213.842-1.169 2.051.008.233.47.891.8.7l5.651-.184c1.77 0 2.653.017 3.495.053zM71.138 19.517c-.212 1.148-1.107 1.193-2.423 1.23l-5.283-.037c-.842 0-1.021-.874-1.021-1.324 0-.625 2.063-4.564 2.214-4.85.38-.735.989-2.215 1.867-2.39 1.07-.2 1.879 1.324 3.412 4.433a12.271 12.271 0 0 1 1.234 2.938z"/><path data-name="Path 30" d="M114.865 34.438a15.351 15.351 0 0 0 3.506-2.055 6.933 6.933 0 0 0 2.378-6.5c-.421-1.745-1.07-2.288-1.679-2.525-.319-.119-1.389.1-1.446.658-.143 1.307.707 1.107.932 1.867.376 1.267.012 2.684-1.589 4.016a11.273 11.273 0 0 1-4.249 2.1c-.327.086-2.578.445-3.734.56a16.927 16.927 0 0 1-3.984-.188 20.045 20.045 0 0 1-4.748-1.246 11.766 11.766 0 0 1-6.689-7.673 16.683 16.683 0 0 1-.466-5.373 13.909 13.909 0 0 1 1.814-5.573 12.723 12.723 0 0 1 8.964-6.108c1.581-.127 2.893-.2 3.13-.188a25.848 25.848 0 0 1 3.281.286c4.1.911 7.114 2.447 8.923 6.4a1.047 1.047 0 0 0 1.03.323.8.8 0 0 0 .327-.789c0-3.661-.045-3.739-.045-3.971s-.065-1.218-.065-1.45.094-1.406.094-1.638c0-.188-.184-1.254-.78-1.254a1.714 1.714 0 0 0-1.05.6c-.253.515-.817.47-1.471.233-2.684-1.312-5.279-1.679-8.323-2.2a21.93 21.93 0 0 0-3.4-.041 18.579 18.579 0 0 0-3.04.184c-.976.237-2.427.421-3.269.609a29.449 29.449 0 0 0-5.185 2.149 17.729 17.729 0 0 0-4.952 4.437 15.08 15.08 0 0 0-2.819 9.524 14.7 14.7 0 0 0 6.227 12.339 28.942 28.942 0 0 0 4.862 2.615 23.523 23.523 0 0 0 4.462.977 28.993 28.993 0 0 0 6.141.237 25.188 25.188 0 0 0 6.912-1.342z"/><path data-name="Path 31" d="M265.33 2.998c.037-.012.057-.033.1-.045-.124.031-.141.045-.1.045z"/><path data-name="Path 32" d="M276.13 33.874c-.756-.306-1.957-.74-1.965-1.773l.029-3.052.02-12.364a69.837 69.837 0 0 1 .319-9.058 2.89 2.89 0 0 1 .711-1.246c.429-1.246 4.67-.466 6.819 0a11.265 11.265 0 0 1 4.633 2.239c.253.572.829.952 1.079 1.483.723 1.565.846 4.654-.817 5.741-.948 1.9-5.749 2.55-7.51 2.59a1.033 1.033 0 0 0-.976.748c-.262 1.316.7 6.223 1.532 8.687 3.457 10.28 16.817 18.031 29.712 11.959.858-.4 2.876-1.92 3.019-2.86.343-.409-.323-.748-.552-.6a8.376 8.376 0 0 1-4.646 1.92 16.715 16.715 0 0 1-5.671.135 23.467 23.467 0 0 1-14.95-8.687 17.3 17.3 0 0 1-3.269-8.691c-.037-.613.744-.686 1.169-.748a17.1 17.1 0 0 0 4.29-1.234 13.4 13.4 0 0 1 1.83-1.009 7 7 0 0 0 3.269-6.913c-.049-.3-.078-1.091-.282-1.307a3.882 3.882 0 0 0-.347-1.234 9.413 9.413 0 0 0-3.293-3.248c-4.376-2.676-11.073-2.325-15.743-2.215-1.879.041-4.948.029-6.823-.094l-1.622-.106c-.012 0-.641.069-.764.057-2.341 1.009 1.965 1.843 2.059 3.036a6.289 6.289 0 0 0 .077.874c.082 2.084.2 4.425.151 6.292-.025.874.053 3.645-.025 5.046s0 5.52-.016 7.784a55.477 55.477 0 0 1-.233 6.492c-.065.539-.789 1.1-1.263 1.259-1.352.462-1.144 1.528-.372 1.5 3.232-.135 7.248-.176 10.464-.049.557.023.512-1.125-.043-1.354z"/><path data-name="Path 33" d="M331.382 33.553a9.391 9.391 0 0 1-2.815-1.23 72.457 72.457 0 0 1-5.737-5.659 6.545 6.545 0 0 1-1.07-1.148c-2.419-2.558-7.1-7.489-7.007-7.706a9.361 9.361 0 0 1 2.3-2.688c1.2-1.238 2.108-2.235 3.416-3.424.494-.462 1.287-1.271 1.986-1.969s1.736-1.724 2.533-2.468c.306-.282.854-.752 1.16-1.083a11.95 11.95 0 0 1 2.055-1.4c.793-.376 2.427-.327 2.447-1.111.012-.449-.319-.5-.789-.752-9.945.172-6.178 0-9.164 0a.862.862 0 0 0-.764.641c-.094.985 1.544.421 1.263 1.5-.065.253-3.31 3.694-4.061 4.4-3.212 3.044-5.516 5.92-9.062 8.862a.989.989 0 0 0-.143 1.45c.887.842 2.942 3.142 3.424 3.722 1.152 1.381 2.272 2.161 3.457 3.555.895 1.05 2.076 2.264 3.26 3.587.474.519.927.972 1.209 1.328.131.163.817.817.817 1.234 0 .8-1.843.507-1.843 1.381 0 .695.915.789 1.475.789.237 0 3.007-.086 3.24-.086s1.422-.008 1.892-.008c6.211.082 6.329-.065 6.517-.041a11.481 11.481 0 0 0 1.25.135c.033 0 1.038-.225.993-.74-.135-.794-1.209-.933-2.239-1.071z"/><path data-name="Path 34" d="M297.936 4.587a2.013 2.013 0 0 1 2.1 2.2s.065 4.061-.016 4.83c-.208 2.055-.029 8.9-.029 8.9s.1 3.056-.029 4.082-.041 7.5-.041 7.5c0 1.773-2.1 1.516-2.08 2.562.012.5.723.613 1.115.613h8.458c.143 0 1.287-.163 1.275-.707-.016-1.021-2-.445-2.043-2.676 0 0-.012-5.7-.041-6.358s-.033-7 .008-7.289c.077-.56.033-5.316.09-5.7.167-1.12.016-5.226.016-5.226 0-.727-.2-1.618.253-2.133a9.453 9.453 0 0 1 1.561-1.062 1.065 1.065 0 0 0 .286-.752c-.008-.437-.31-.613-.817-.613-.237 0-1.136.188-1.369.188s-1.475.041-2.811.147c-1.218.09-3.126-.114-3.363-.1a14.052 14.052 0 0 1-2.423-.049c-.568 0-.854.294-.887.609a.975.975 0 0 0 .787 1.034z"/><path data-name="Path 35" d="M396.849 30.267c.008-.057-.041-.2-.159-.2-.266.012-.711.008-1.193.012-.682 0-1.414-.008-1.446-.008l-1.046-.012c-.147-.016-.2.061-.2.131 0 .261-.012.392-.029.633 0 .086.11.155.164.061a.382.382 0 0 1 .159-.188.941.941 0 0 1 .445-.123.724.724 0 0 1 .225-.016c.294.008.592.025.6.249.008.3 0 1.4 0 1.4l.008.817-.008.817c0 .065-.012.437-.012.486a.449.449 0 0 1-.086.274c-.061.078-.18.069-.18.167 0 .069.025.082.123.1.135-.008.351-.037.376-.037a7.027 7.027 0 0 1 .788.02.1.1 0 0 0 .074-.172c-.045-.033-.11-.029-.164-.1a.716.716 0 0 1-.082-.311c-.021-.4 0-.723-.008-1.283-.008-.29.012-.531 0-.793-.012-.36.012-.764.012-1.091s0-.388.143-.474a.924.924 0 0 1 .474-.1 1.5 1.5 0 0 1 .74.151c.065.041.082.139.119.192s.171.053.163-.094a3.665 3.665 0 0 1 0-.508z"/><path data-name="Path 36" d="M402.39 30.635c0-.192.033-.286.143-.319.07-.024.147-.074.143-.159s-.053-.09-.122-.09a2.905 2.905 0 0 0-.294.012 3.819 3.819 0 0 1-.47-.016c-.11.012-.241-.029-.343.065a3.764 3.764 0 0 0-.38.441c-.078.1-.286.368-.355.462-.2.253-.327.454-.548.695a.262.262 0 0 1-.131.082c-.061 0-.131-.106-.208-.188-.625-.633-1.189-1.283-1.389-1.508-.065-.078-.245.016-.948-.049-.069-.008-.106.061-.1.131 0 .131.294.078.294.425l-.029 2.586c0 .3-.02.977-.02.977a1.325 1.325 0 0 1-.049.4c-.02.037-.221.074-.221.188s.049.1.135.086a3.4 3.4 0 0 1 .364-.041 3.036 3.036 0 0 1 .339.025c.049 0 .123.008.123-.082 0-.184-.22-.061-.22-.36 0 0-.021-.355-.021-.523 0-.421.041-1.164.033-1.442a4.635 4.635 0 0 1 .021-.478v-.29l.029-.212c.025-.131.082-.118.122-.118a6.037 6.037 0 0 1 .58.572c.106.11.76.813.875.936.065.057.086.069.135.073s.086-.049.139-.1c.029-.025.335-.449.413-.544s.323-.458.352-.49c.167-.2.343-.478.576-.719.082-.1.188-.119.188 0v.233c0 .037-.037 1.822-.025 2.423v.719c0 .253-.274.188-.274.327a.113.113 0 0 0 .053.082l.58-.041a.99.99 0 0 0 .192.025c.151 0 .38.012.413.012 0 0 .127 0 .127-.074 0-.135-.212-.1-.257-.364 0 0 .012-.666 0-1.271-.016-.911.053-1.41.029-1.826v-.237c.006-.15.006-.261.006-.436z"/><path data-name="Path 37" d="M311.803 70.136c-.262.253-4.229.029-6.958.041l-.049-.02q-1.324.018-2.644 0c-.212-.094-1.116-.082-1.083.4.045.609.049 1.2.045 1.8 0 .36.658.339.8.294.192-.033 4.278.02 4.785.02l.094.02c.074-.02 1.724-.012 2.006-.012l.057-.02a28.167 28.167 0 0 0 2.995.045c.037-.041 1.687-.086 1.929-.163a8.1 8.1 0 0 0 .077-1.863l.037-.037v-.257l-.074-.045z"/></g></g></svg>