<svg xmlns="http://www.w3.org/2000/svg" xmlns:xlink="http://www.w3.org/1999/xlink" width="139" height="140" viewBox="0 0 139 140"><defs><style>.a,.c{fill:#fff;}.a{stroke:#707070;}.b{clip-path:url(#a);}</style><clipPath id="a"><ellipse class="a" cx="69.5" cy="70" rx="69.5" ry="70" transform="translate(0.406 -0.313)"/></clipPath></defs><g class="b" transform="translate(-0.406 0.313)"><g transform="translate(11.46 9.133)"><path class="c" d="M315.427,316.915c.458-.744.162-1.3-.275-1.44l-.705-.1a1.131,1.131,0,0,0-1.183,1.26A1.245,1.245,0,0,0,315.427,316.915Zm-5.029-.389a10.449,10.449,0,0,0,1.17-2.837c.171-.491-.5-.6-.763-.566-.677.087-.973.3-1.087.748-.181.722-.441,1.1-.906,2.54C308.65,316.887,310,316.993,310.4,316.526Zm9.625-42.6a10.016,10.016,0,0,1-1.743-.534c-.175-.108-2.142-.649-2.644-.973-.283-.194-2.11-.761-2.519-1.033s-1.671-.653-2.277-.962c-.558-.281-.21-.13-.776-.2a1.6,1.6,0,0,0-.649.582c-.119.655-.3.447-.1,1.074a6.694,6.694,0,0,0,.6.793c.419.305,1.457,1.76,1.751,1.941.608.394,1.987,1.874,2.862,2.376a22.328,22.328,0,0,0,2.89,1.706c.435.156,1.7.856,1.976.887.577.086,2.238.947,2.542,1.008l.61.151a.859.859,0,0,0,.908-.625c.1-.236.123-.491.225-.724.2-.469.538-.856.75-1.317a7.913,7.913,0,0,0,.473-1.728c.143-.655.186-.443-.337-.847a7.427,7.427,0,0,0-2.1-.783c-.272-.1-.534-.809.274-.781,1.49.257,2.783.229,3.356.357.354.076.683.236,1.034.309a30.532,30.532,0,0,0,3.593.266,11.463,11.463,0,0,0,2.357.259,15.943,15.943,0,0,0,2.225-.393,2.865,2.865,0,0,1,1.3-.244c1.829-.783,2.086-1.58,1.671-1.626-.275-.026-.521-.171-.8-.2a11.865,11.865,0,0,1-1.652-.186c-.6-.143-1.165-.326-1.762-.452l-.871-.179a4.668,4.668,0,0,1-.862-.279c-.272-.1-.582,0-.856-.112l-.785-.3c-.207-.078-.919-.233-1.371-.355a1.127,1.127,0,0,0,.084.125,11.424,11.424,0,0,0,4.106,1.784c1.152.13.917.867-.437,1.146a3.809,3.809,0,0,1-2.1.264c-1.127-.216-2.305-.136-3.781-.367-.491-.078-2.43-.415-3.01-.415a16.83,16.83,0,0,1-3.141-.763,44.082,44.082,0,0,1-4.423-1.667,16.36,16.36,0,0,0-2.986-1.356,6.487,6.487,0,0,1-1.2-.439,15.07,15.07,0,0,0,2.279,1.539c.428.182.895.268,1.338.45,1.743.731,2.577,1.505,4.6,2.251C321.172,273.543,320.562,274.086,320.022,273.924Zm-20.364,40.544a17.184,17.184,0,0,1-2.357-1.5c-.223-.2-.893-.971-1.137-1.17a24.907,24.907,0,0,1-1.756-1.883c-.374-.4-.694-.871-1.029-1.306-.367-.474-.947-.826-1.021-.16-.108,1.09.532,1.448.994,2.309a11.856,11.856,0,0,0,1.587,1.676l1.354,1.371c.242.246,1.234,1.1,1.514,1.3a14.793,14.793,0,0,0,2.679,1.792c.566.27,1.766.8,2.316,1.085a8.134,8.134,0,0,0,1.494.714c.255.063.925.344,1.434.45.268.061,1.762.387,2.262.523,1.1.288,4.417.164,4.884.4,1.524-.119,2.38-1.243,1.68-1.416-.34-.084-2.9-.2-3.3-.231s-2.052-.255-2.478-.355c-1.442-.318-2.778-.754-4.192-1.137a24.513,24.513,0,0,1-2.389-.988c-.487-.19-1.02-.794-.482-.726a13.363,13.363,0,0,1,2.35.515,3.149,3.149,0,0,0,2.516.173c.545-.259.3.08.685-.4a7.713,7.713,0,0,0,.949-2.389c.022-.733-.5-.767-.958-1.2a26.442,26.442,0,0,1-2.625-1.769c-.283-.279-.977-1.265-1.26-1.548a20.387,20.387,0,0,1-4.929-3.023,8.757,8.757,0,0,0-1.384-.973l-1.448-1.075c-.688-.3-1.02.541-1.055.575-.558.411-.473.536-.659,1.217a1.925,1.925,0,0,0,.355,1.952c.162.231,1.821,2.421,2.141,2.718.5.458.813,1.077,1.325,1.531.26.227.62.739.875.975a5.667,5.667,0,0,0,1.821,1.509C300.812,314.5,300.265,314.686,299.658,314.468Zm41.2-10.654a11.916,11.916,0,0,0-1.578-.914,9.486,9.486,0,0,1-.973-3.139c-.061-3.288,3.708-5.742,2.328-8.334-1.1-2.063.041-2.785.854-5.84.2-.772,1.289-2.5.67-3.113-.29-.281-.257-1.559.54-2.592-.231-.223.647-1.282-.491-2.521-.914-1.122-2.839-.32-4.6,2.22-1.036,3.146-3.723,3.431-6.319,5.059a8.333,8.333,0,0,1-3.8.874,36.559,36.559,0,0,0-4.283-1.206,20.761,20.761,0,0,1-3.109-.035,9.632,9.632,0,0,1-3.52-1.155c-.37-.309-.694-.833-1.085-1.139-.648-.506-1.535-1.062-2.313-1.639-.83-.6-2.421-2.034-2.711-2.311s-4.439-3.656-4.655-4.116c-.949-1.034-1.643-3.422-2.017-4.666-.441-1.459,1.226-4.158.446-4.769a4.988,4.988,0,0,0-3.518.579c-.368-.2-1,.811-1.319,1.023a2.763,2.763,0,0,0-.951,2.709,10.925,10.925,0,0,1,.437,2.261c.045.666.588,3.239.571,4a4.383,4.383,0,0,0,1.353,3.522,8.769,8.769,0,0,0,.145,1.4A2.958,2.958,0,0,1,299.781,282a9.492,9.492,0,0,0-1.494,1.758c-.627,1.193-.64,1.978.266,2.865.571.56,1.658.634,2.549,1.09,1.308.681,4.361,3.483,5.885,4.088a23.121,23.121,0,0,0,4.851,1.341,23.157,23.157,0,0,1,2.207,1.254c.711.7.768,2.93,1.635,4.188,1.578,1.777,1.864,4.357,4.032,5.792.785.986.835,1.055,1.131,1.1.121.348,1.282,2.428.527,2.912-.774.5-2.568-.383-3.455-.943-5.065.5-7.98-5.833-12.6-5.2-.59.074-5.027-3.267-6.454-2.348-.685.454,2.188,2.69,2.188,2.69.287.277,3.319,2.335,5.027,3.375,1.4.85,2.6,1.353,3.989,2.034a18.894,18.894,0,0,0,6.11,1.555,35.8,35.8,0,0,1,6,3.487c.285.275,1.012.9,1.057,1.308.283,2.569,2.069,3.68,2.765,6a19.916,19.916,0,0,0,1.1,2.6,19.956,19.956,0,0,0,1.686,1.734c1.609,1.334,2.11-.02,3.247-.785,3.133-2.132,2.9-2.927,2.592-3.116-1.95-1.029-5.031-2.783-5.306-3.049l-1.567-1.531a7.15,7.15,0,0,1-1.023-2.553,5.035,5.035,0,0,1,.238-2.037l.432-.275a1.3,1.3,0,0,1,.86.359c.283.275,1.036,2.685,1.319,2.96l2.247,2.2a35.875,35.875,0,0,0,3.807,2.445c.491.154.99-.3,1.948-1.375,1.109-1.228,1.418-2.636,2.582-3.77-.147.184,1.332-1.513,1.39-1.671a11.567,11.567,0,0,1,1.6-2.519,2.424,2.424,0,0,0,.454-2.374A32.5,32.5,0,0,0,340.859,303.814Zm-39.167-7.091a2.46,2.46,0,0,0,.186-2.752,7.829,7.829,0,0,0-1.548-1.989c-.3-.3-1.6-1.28-2.194-.895-.941.61-.627,3.548.054,4.216C298.235,295.349,301.076,297.135,301.692,296.724Zm25.46-30.076a6.731,6.731,0,0,0,1.755.221c.37-.1,1.982.082,2.685-.078a2.737,2.737,0,0,1,2.37.4A4.664,4.664,0,0,0,335.3,268.3c.638.311,1.693.02,2.326.082a6.839,6.839,0,0,0,1.248-.305c.32-.078.614-.932-.4-1.01a4.13,4.13,0,0,1-1.533-.417c-.621-.247-1.256-.5-1.418-.794-.286-.534-.7-.674-1.131-1.014a2.906,2.906,0,0,0-1.479-.819,2.689,2.689,0,0,0-1.905.333,3.418,3.418,0,0,1-1.827.77,6.253,6.253,0,0,0-1.65.108,6.992,6.992,0,0,1-2.132.123c-.9-.067-.489.538-.043.757A8.01,8.01,0,0,0,327.152,266.648Zm6.077,10.914c-.657.2-.956.314-1.1.791a6.387,6.387,0,0,1-.433,1.018l-.311.629c-.34.75.058.98.573.9a10.841,10.841,0,0,1,1.291-.145,2.155,2.155,0,0,0,1.34-1.319c.067-.259.266-.709.344-.984.227-.783.011-.941-.192-.986A5.926,5.926,0,0,0,333.229,277.562Zm7.325-31.52c-.906-.136-2.607-.811-3.077-.61-1.8.759-1.665,2.125-2.048,4.64-.034.313-.508,2.272-.238,2.889.393.936,1.885.746,2.979.281.467-.192.8-.774,1.273-.971l2.94-1.243c.467-.192,1.647.182,2.121-.013,1.377-.582,1.336-2.019.752-3.384C344.545,245.956,342.141,246.274,340.554,246.042Zm47.874,5.589-.932-2.181c-.112-.274-1.807-5,.1-5.868l-2.741-5.035a27.794,27.794,0,0,0-1.825-2.486c-.212.113-.417.223-.58.331-1.39.884-3.2,3.038-3.673,3.241-.86.359-1.392-.432-1.66-1.055a10.891,10.891,0,0,1-.906-4.276c.158-1.237,1.868-2.24,1.3-3.557-.1-.234-.837-1.427-1.574-2.726-1.466-1.18-4.134-3.371-5.889-4.817a2.239,2.239,0,0,1-.949,1.014c-1.01.422-1.989-1.168-2.281-1.788-.517-1.014-3.09-1.235-3.961-1.113a10.877,10.877,0,0,0-2.469.286c-1.827.475-9,2.181-8.767,2.746.474,1.116-1.674,2.46-2.447,2.783a42.233,42.233,0,0,0-4.039,1.494,1.144,1.144,0,0,0-.114.869c2.294-.024,6.858-1.965,7.77.167,0,0,.385,1.474-.456,1.833l-2.385,1.007c-.912.389-2.138.813-2.378,1.985a11.63,11.63,0,0,1,2.583,2.424c.407.947.867,1.2,2.22,1.479,1.52.32,3.7-.247,5.264.681.928.569,1.338,1.833,2.175,2.164,2.305.947,5.386,4.551,6.177,6.41.218.506.821,3.066-.257,4.268-2-.608-2.246-1.859-3.308-2.914-.281-.266-.326-.763-.592-1.061-.447-.465-3.107-1.609-3.688-1.364-.724.305-1.874,1.557-1.559,2.3.2.461,5.048,5.613,5.252,6.082l2.06,4.826c-.407,5.02-5.712,6.24-4.313,9.515.581,1.364,2.94,1.271,4.183.754.467-.2,2.194-1.587,3.306-2.14a51.251,51.251,0,0,1,5.357-5.55c.8-.772,1.161-1.857,1.956-2.655,1.639-1.65,4.168-2.382,5.191-4.761.759-1.768,1.528-4.5,2.35-6.387.071-.138-.553-4.984.54-5.452a1.249,1.249,0,0,1,1.583.865,16.176,16.176,0,0,1,.376,5.148c-.333,2.2-2.032,3.915-2.067,5.7,0,.29-.342,1.561-.7,3.115,1.866-1.483,3.665-3.044,5.6-4.439.447-.326.925-.621,1.41-.91A3.95,3.95,0,0,0,388.428,251.631Zm-61.012,25.386c-.521.329-.164.329-.421.783-.521.912-.571,1.282-1.23,2.581-.132.262-.171,1.061.13,1.141a6.044,6.044,0,0,0,.919-.047c.378-.054.891-.8,1.066-1.157l.446-1.007a14.115,14.115,0,0,0,.579-1.287c.179-.562.484-.273.188-.886A1.88,1.88,0,0,0,327.416,277.017Zm20.878-14.023a1.665,1.665,0,0,0,1.879.521,15.874,15.874,0,0,0,2.069-1.567l-.523-1.213a5.119,5.119,0,0,0-2.646-.043A2.09,2.09,0,0,0,348.294,262.994Zm-2.9-10.384a8.7,8.7,0,0,0-1.6,1.369l.363.839a9.884,9.884,0,0,0,5.12-.121c.017-.009,1.144-.67.807-1.436C349.849,252.7,346.284,252.234,345.4,252.61Zm7.675,38.335c-.975-.413-1.079-.194-2.022-.917-1.168-.9-.757-.737-.4-1.955.328-1.075-.121-.67.666-1.732.9-1.2,1.715-2.506,2.677-3.65.329-.4.746-.705,1.051-1.1.305-.411.469-.915.781-1.31a7.547,7.547,0,0,1,.787-.755c-2.806.379-4.921-.326-6.19-3.3-1.341-3.131.247-5.087-.919-7.829-1.062-2.478-2.646-.5-4-3.68-.089-.21-.214-2.568-.249-2.627-.433-1.023-3-1.068-3.682-1.57-1.317-.956-1.247-2.24-1.65-3.191-.618-1.446-2.566-.353-3.6-.331-1.39.043-4.5-1.595-4.988-2.728a4.211,4.211,0,0,1-.383-2.1c.38-1.771,1.41-3.6,1.693-5.526a38.41,38.41,0,0,1,1.518-6.784A5.8,5.8,0,0,0,334.1,237c-.234-.558-2.737-2.043-4.329-3.384l-5.386,2.849c-3.15,1.669-10.458,6.045-13.405,6.866l-2.514.705c-1.215.339-2.666.467-3.569-.592-2.35-2.759,7.476-8,9.532-9.091.6-.32.941-.722,1.537-1.038a41.938,41.938,0,0,1,4.594-1.728c2.387-.934,4.756-2.115,7.191-2.906l8.618-2.824c.746-.233,1.466-.277,2.21-.517,2.268-.726,4.469-1.626,6.75-2.279,2.491-.724,8.88-2.194,10.788-3.226a3.389,3.389,0,0,0-.53-.376l-2.93.35c-3.946.445-7.664,1.314-11.543,2.022-.968.175-1.946.21-2.9.391-1.915.34-3.8.886-5.725,1.224-.977.186-1.632.339-2.6.538-1.509.294-1.881.216-2.689-1.189A29.385,29.385,0,0,1,324.5,215.9c-.482-1.559-.482-1.49,1.036-2.06,2.424-.928,4.849-1.8,7.186-2.923-1.565.067-3.157.406-4.7.558-2.437.246-5.394.22-7.7.932L310.2,215.514a22.218,22.218,0,0,0-3.961,2.039c-2.188,1.169-6.045,2.787-7.818,4.257-1.887,1.555-3.738,3.183-5.638,4.741a23.53,23.53,0,0,0-3.379,2.835c-1.248,1.511-2.445,3.068-3.7,4.573-1.219,1.468-2.837,2.9-3.732,4.557-1.635,3.033-3.3,6.082-4.962,9.1-1.046,1.894-1.617,5-2.285,7.145-.454,1.435-.943,2.854-1.394,4.289-.724,2.311-.636,5.228-.88,7.653-.208,1.98-.766,4.2-.556,6.166.164,1.537.383,3.074.54,4.622.251,2.421.173,5.34.9,7.651.9,2.867,1.842,5.74,2.726,8.6.225.707,1.477,3.5,1.825,4.168.715,1.407,3.727,7.545,4.925,8.975,1.65,1.98,6.092,7.608,7.679,8.907,2.653,2.173,5.278,4.38,7.939,6.57a14.758,14.758,0,0,0,2.562,1.47c2.2,1.195,7.316,4.281,9.2,4.847,1.922.59,3.846,1.209,5.77,1.8,1.215.372,2.441.7,3.654,1.059a8.53,8.53,0,0,1,.839-2.648c.268-.476,1.755-2.495,2.008-2.983s.83-1.263.564-1.6l-1.468-1.65c-.791-.774-1.3-3.418-2.93-5.729a1.323,1.323,0,0,1-.091.5c-.244.506-.9,1.312-1.241,2.019-.112.233-.136.512-.257.755a3.986,3.986,0,0,1-2.322,1.658,5.79,5.79,0,0,1-1.855.076,23.384,23.384,0,0,1-2.958.022,18.472,18.472,0,0,1-3.663-.841,10.016,10.016,0,0,1-1.557-.357c-.9-.409-1.569-.761-2.46-1.165-.452-.2-1.023-.575-1.474-.767a14.812,14.812,0,0,1-2.417-1.462,24.48,24.48,0,0,1-3.8-3.386c-.631-.681-1.436-1.271-2.067-1.95a4.4,4.4,0,0,1-.683-1.384c-.833-1.764-.876-.994-.889-3.3a5.515,5.515,0,0,1,.51-2.034c.132-.329.153-.62.262-.964s.283-.668.391-1.007c.1-.313.259-.6.381-.914.1-.286.281-.551.378-.845s.087-.607.192-.9a1.051,1.051,0,0,0-.37-.7,11.033,11.033,0,0,1-1.73-3.061,5.871,5.871,0,0,1,.231-2.614,14.511,14.511,0,0,0,.876-2.482,10.955,10.955,0,0,0-.508-3.3,5.42,5.42,0,0,1,.858-4.242c.234-.357.772-.865,1.141-1.31a1.58,1.58,0,0,0,.469-1.513,14.076,14.076,0,0,1-.6-4.6,7.713,7.713,0,0,1,1.062-2.024c.361-.607,1.922-1.911,2.229-2.737.445-1.777-.979-3.39-.752-4.231.3-1.142-.238-.893.752-2a7.205,7.205,0,0,1,1.572-1.656,9.9,9.9,0,0,1,4.938-1.673c.815-.08,2.469-.523,2.869-.251.259-.815.7-1.453.956-2.175.5-1.435.767-2.947,1.276-4.376a6.408,6.408,0,0,0,.636-1.626c1.34-1.02.428-.91,2.484-1.678,2.253-.837,7.47.534,9.79,1.161.8.21,1.5.653,2.277.891.381.114.783.114,1.159.236a23.267,23.267,0,0,1,4.884,2.063c.553.318.214.577-.272.43-.886-.277-1.991-.711-2.893-.917-.727-.162-1.393-.525-2.1-.735a32.666,32.666,0,0,0-9.88-1.589c-.326.024-.625.162-.953.192a3.481,3.481,0,0,0-2.266.752c-.7.741-.534,1.269-.221,2.048.906-.27,1.983-.326,2.795-.487.861-.18,2.917.214,3.742.084a33.495,33.495,0,0,1,4.408.207c.4.071,2.9.718,3.249.713a40.1,40.1,0,0,1,4.817,1.358,14.461,14.461,0,0,1,1.821.582c.395.175,2.2.99,2.421,1.133s1.559,1.189,2.266,1.628A8.282,8.282,0,0,1,338,263.662c.219.285.257.807-.194.476-1.139-.073-1.438-1.565-3.04-2.38a20.723,20.723,0,0,0-2.277-.981,8.045,8.045,0,0,0-2.81-.123,5.058,5.058,0,0,0-1.514.6,13.746,13.746,0,0,1-3.621,1.137,9.2,9.2,0,0,1-3.209-.192,20.937,20.937,0,0,0-2.716-.8,10.91,10.91,0,0,1-2.447-.809c-.318-.24-1.356-.564-1.768-.8a4.212,4.212,0,0,0-1.068-.54c-.333-.095-.4.249.011.586a6.131,6.131,0,0,0,.956.763c.727.443,1.09.592,2.181,1.209a22.185,22.185,0,0,0,3,1.293,43.783,43.783,0,0,0,4.462.953c.917.119,1.8-.119,2.486-.019s2.556-.683,3.911-1.155a3.109,3.109,0,0,1,2.517-.171,13.313,13.313,0,0,1,3.131,1.823,16.455,16.455,0,0,0,1.92,1.183,1.23,1.23,0,0,0,1.243.134c.452-.145.986.915,1.124,1.2a3.047,3.047,0,0,1-.076,2.294c-.264.811-1.827,1.446-2.616,1.488a28.178,28.178,0,0,1-4-.21,14.28,14.28,0,0,0,2.153.376c.958.056,2.551.063,3.077.132a2.616,2.616,0,0,0,1.794-.713,2.477,2.477,0,0,0,.722-2.186c-.067-.646-.219-.638-.5-1.146a13.121,13.121,0,0,0-1.639-2.787c-.2-.207-.406-.333-.6-.527s-.337-.452-.527-.664a7.209,7.209,0,0,0-1.379-1.075c-.26-.175-.313-.363-.556-.558s-.592-.355-.826-.569c-.711-.642-1.862-1.042-2.56-1.714-.193-.182.123-.432.143-.422.365.19,1.211.521,1.594.7a10,10,0,0,1,1.764,1.062c.538.4,1.838,1.356,1.972,1.488.259.255.677.474.936.716s.27.441.541.672a13.386,13.386,0,0,1,1.794,2.356c.194.26.473.443.659.724.034.043.828,1.583.854,1.66.391,1.594.208.889-.089,2.419-.117.612-.086.365-.378.867-.417.692-.621,1.494-1.031,2.2-.164.274-.363.53-.538.8.428-.247.914-.415,1.195-.162a2.214,2.214,0,0,1,2.121,1.714c.655,1.513.785,1.468.456,3.172-.123.6-.553,2.6-.1,3.342.936,1.528-.653,3.7.128,5.4.614,1.336-.707,2.415-.093,3.773.6,1.332.847,1.118,1.128,2.409.906,4.244-3.418,6.428-2.389,8.73l.915.9c.22-.288.378-.523.822-1.036.4-.469.906-.835,1.275-1.332.716-.93.456-1.271,1.7-1.7.51-.18,1.84-.136,2.225.659.705,1.159,1.861,2.7,2.378,3.451a2.393,2.393,0,0,1,.257.482,24.57,24.57,0,0,1,1.887-5.634c.923-1.725,2.021-3.342,2.938-5.063a11.289,11.289,0,0,0-2.947-1.55C354.236,291.674,353.708,291.217,353.072,290.945Z" transform="translate(-271.852 -210.918)"/></g></g></svg>