<svg xmlns="http://www.w3.org/2000/svg" width="190" height="25.276"><g data-name="Group 51"><g data-name="Group 49" fill="#fff" fill-rule="evenodd"><path data-name="Path 46" d="M51.042 25.276a.161.161 0 0 1 .03-.014c-.035.009-.042.012-.03.014z"/><path data-name="Path 47" d="M124.621 15.891c-.249-.107-.585-.077-.749-.3-.129-.01-.184-.148-.275-.211a1.672 1.672 0 0 1-.585-.736 10.808 10.808 0 0 1-.552-1.036c-.131-.193-.463-.881-.829-1.5 0-.061-.495-.811-.648-1.158a10.3 10.3 0 0 1-.535-.915 16.52 16.52 0 0 0-.566-1.034 8.8 8.8 0 0 1-.494-.743 4.947 4.947 0 0 0-.393-.777 5.643 5.643 0 0 1-.591-.969c-.253-.44-.776-1.4-.891-1.571-.563-.853-1.246-2.209-1.3-2.311a4.393 4.393 0 0 1-.224-.607c-.019-.075-.06-.153-.076-.2A1.535 1.535 0 0 1 116 .803c.068-.087.164-.192.241-.286.009-.081.052-.187.052-.239a.257.257 0 0 0-.233-.255c-.114 0-.2-.056-.3.056-.124.049-.225.15-.342.2a5.047 5.047 0 0 0-.807.935c-.049.132-.7 1.132-1.017 1.738-.006.039-.537.989-.545 1.047-.132.242-.5.858-.512.9-.066.132-.464.9-.545 1.062-.021.046-.346.709-.353.75a6.063 6.063 0 0 1-.343.7 4.967 4.967 0 0 0-.408.618c-.052.091-.448.954-.565 1.2-.055.116-.631 1.161-.7 1.394-.032.019-.688 1.4-.831 1.573a4.141 4.141 0 0 1-.4.82 2.141 2.141 0 0 1-.289.551 6.711 6.711 0 0 1-.725 1.363 2.7 2.7 0 0 1-.506.573 2.4 2.4 0 0 1-.573.33 1.048 1.048 0 0 0-.376.177.355.355 0 0 0 0 .506s.381.09.414.09h.6a3.418 3.418 0 0 1 .683-.041 3.1 3.1 0 0 0 .4 0h.254c.052 0 .954.041 1.008.041h.53a.649.649 0 0 1 .249-.095c.077-.113.1-.095.1-.223 0-.088-.046-.073-.095-.223-.1-.081-.216-.093-.3-.189a3.648 3.648 0 0 1-.243-.33 1.161 1.161 0 0 1 0-.761 2.5 2.5 0 0 1 .151-.54c.041-.177.34-.85.488-1.223.02-.05.132-.26.152-.3a1.573 1.573 0 0 1 .5-.517 2.119 2.119 0 0 1 .505-.173h2.765c.017.016 0 .041.115 0h2.037c.052 0-.011.041.085 0l.963.027.464.045a1.094 1.094 0 0 1 .44.264 1.924 1.924 0 0 0 .348.356.508.508 0 0 0 .055.139c.008.024.143.178.156.2.051.124.187.31.235.428.111.215.409.777.463.838a6.529 6.529 0 0 1 .536 1.341c0 .353-.688.29-.677.668.044.088.009.2.25.3h.927l1.975-.083h1.08a2.222 2.222 0 0 1 .486.041h.525c.037-.087.164-.04.2-.051.115-.08.183-.149.183-.266 0-.162-.199-.279-.309-.388zm-8.177-5.726c-.17.037-.3.041-.463.09l-.374.02h-.572l-1.128.021-1.059-.041h-.351c-.148-.041-.316 0-.417-.112a3.548 3.548 0 0 1-.177-.309l.077-.505a1.154 1.154 0 0 1 .23-.4c.133-.264.281-.568.309-.638a7.115 7.115 0 0 0 .4-.775c.046-.133.353-.724.593-1.185a2.192 2.192 0 0 1 .354-.443.34.34 0 0 1 .27-.133.634.634 0 0 1 .347.133 3.251 3.251 0 0 1 .45.484 2.746 2.746 0 0 0 .338.507 3.849 3.849 0 0 0 .595.974 3.427 3.427 0 0 0 .549.971c.082.182.417.657.428.721.064.442-.263.543-.399.62z"/><path data-name="Path 48" d="M104.612 1.387s-.617.011-.753.041c0 0-1.682-.019-2.5 0a.855.855 0 0 0-.277.292c-.438.167-1.96 1.975-2.557 2.426-.347.807-1.327 1.07-1.718 1.847a5.889 5.889 0 0 0-.971.853c-.4.175-1.081-.652-1.366-.838-.058-.111-2.013-1.863-2.162-1.939l-.573-.485c-.56-.233-1.332-1.353-1.846-1.582-.208-.479-.622-.357-1.064-.4l-1.478-.042-.461.046c-.545 0-.767-.01-1.312 0-.362-.042-.132.294-.132.294.517.061.889.513 1.264.863.015.464-.01 5.685-.078 5.825.068.188-.052.389.042.57 0 0-.02 3.322-.016 3.611 0 0-.121 1.5-.121 2.171 0 1.076-.4.8-.938 1.476l.139.2a.628.628 0 0 0 .41.01l1.439-.041s.908.031 1.265.039c.447.06.49-.337.169-.461a.814.814 0 0 1-.715-.565c-.039-.22-.042-5.249.016-5.616l-.041-.106a4.174 4.174 0 0 1 .085-1.259l-.044-.877.044-.963a9.522 9.522 0 0 1 0-1.436l.066-.429c.055-.216.252-.163.6.161.327.271 1.167.853 2.238 1.694.535.551 2.271 1.873 2.544 2.332.355.19.913.785 1.356.578.418-.2.991-1.064 1.44-1.4l.03-.071a3.089 3.089 0 0 0 .716-.677l.1-.012a3.189 3.189 0 0 1 .763-.678c.234-.374.792-.637.96-1a1.976 1.976 0 0 0 .8-.634l.267-.141.026-.112.45-.3.406-.224.146.443v2.764a13.61 13.61 0 0 0 0 1.924 9.191 9.191 0 0 0-.085 1.842s-.017 2.152-.017 3.254c-.087.4.035.873-.505 1.286-.2.011-.328.178-.489.272l-.048.149c.1.289.511.295.741.179a3.894 3.894 0 0 0 .991 0l.853.01c.882.045 2.409.221 2.409-.135s-.514-.437-.6-.437c-.4-.177-.371-.832-.371-.832s.017-.852.041-1.176l-.041-.072a5.729 5.729 0 0 0 0-1.229 10.979 10.979 0 0 0 .041-1.883c-.022-.714.126-5.095-.041-5.432.1-.183-.025-1.059.118-2.748.046-.556.688-.564 1.106-.711l.044-.154c-.056-.367-.269-.45-.805-.355z"/><path data-name="Path 49" d="M15.553 9.501c-.08-.2-.193-.425-.272-.59-.051-.1-.386-.5-.428-.606a3.384 3.384 0 0 0-2.009-1.8 7.272 7.272 0 0 0-2.179-.59c-.044-.012-.072-.081-.075-.114 1.188-.354 1.948-1 1.948-1.914a1.6 1.6 0 0 0-.843-1.3 5.784 5.784 0 0 0-1.253-.651 9.808 9.808 0 0 0-1.322-.392 19.106 19.106 0 0 0-2.126-.223l-2.307-.067-3.6.113C1.07 1.367 0 1.174 0 1.684c0 .328 1.285.377 1.358 1.475a6.542 6.542 0 0 1 .046 1.788c0 .114-.091.612-.091.726s.045.251.058.394c.037.051-.036.127-.058 4.25s.078 1.383.027 3.4a11.063 11.063 0 0 1-.118 1.585c-.072.7-.859.547-.859 1s.46.306.653.34l2.9.047c.315 0 .633.091.9.091.1 0 1.534-.035 1.631-.035.27 0 .955-.007 1.069-.007.328 0 .595-.1.786-.1.114 0 .851.047 1.667 0a6.254 6.254 0 0 0 2.74-.759 6.069 6.069 0 0 0 3.085-4.207 4.627 4.627 0 0 0-.075-1.372 2.979 2.979 0 0 0-.166-.799zM4.644 3.619c-.01-.59.657-.637.99-.657.724-.047 1-.047 1.112-.047.758 0 2.577.142 2.577 1.111 0 1-1.3 1.269-2.111 1.381-.316.044-.807 0-1.623 0-.348-.058-1.011-.024-1.011-.539a9.537 9.537 0 0 0 .067-1.25zm4.893 11.635a.852.852 0 0 0-.148.1 9.252 9.252 0 0 1-1 .158H7.314c-.112 0-.58-.177-.868-.216-.56-.077-1.87-.536-1.921-1.392a6.115 6.115 0 0 1 .006-.893 2.537 2.537 0 0 0-.045-.6l.083-4.356c.352-1.051 1.745-.772 2.509-1.015.907.045 1.157.044 1.271.044a13.936 13.936 0 0 1 2.167.649 4.587 4.587 0 0 1 2.381 3.748 3.976 3.976 0 0 1-3.359 3.776z"/><path data-name="Path 50" d="M174.91 13.202c-.347-.078-.852.751-1.2.93a7.306 7.306 0 0 1-1.917.618 28.363 28.363 0 0 1-6.834.307c-1.047-.049-2.555-.342-2.555-1.674 0-.755-.081-3.383.285-3.9.387-.545 1.23-.57 1.831-.617a17.356 17.356 0 0 1 2.974.109c1.046.095.842.325 1.355.947a.274.274 0 0 0 .234.112c.106-.021.291-.179.286-.3-.029-1.091.044-2.148.044-3.232 0-.341-.5-.132-.617.044a1.894 1.894 0 0 1-1.7.751c-.846.066-4.288.418-4.408-.777-.062-.629-.183-2.633.332-3.015.873-.647 3.343-.468 4.429-.439a3.594 3.594 0 0 1 2.888.99.341.341 0 0 0 .571-.243c.408-3.138-.316-2.342-3.04-2.357-1.978-.012-3.956 0-5.93-.034a29.62 29.62 0 0 0-3.043-.056c-1.35.129.69.974.68 1.524l-.063 4.186c-.031 2.064-.121 4.13-.176 6.193-.016.633-.031 1.287-.088 1.919-.063.7-1.867 1-.8 1.5.07.031 11.952-.109 13.678-.063.683.016 1.367.046 2.051.044.558 0 .807.032.857-.551.024-.382.324-2.815-.124-2.916z"/><path data-name="Path 51" d="M182.59 3.176a7.045 7.045 0 0 1 4.607.178c.121.072 1.036 1.514 1.075.316.017-.582.2-2.251-.612-2.279-3.321-.112-6.7.058-10.028.022l-3.989-.045c-.28 0-.772.026-.772.419 0 .673-.124 1.367-.109 2.027a.345.345 0 0 0 .617.2c.228-.282.254-.413.6-.607.754-.418 4.743-.9 4.84.342.114 1.47 0 3 0 4.475 0 2.256-.044 4.512-.044 6.765 0 1.2-.994 1.009-.994 1.412 0 .267.242.3.464.307.466.03.957-.1 1.426-.113 1-.019 2 .083 2.982.071.337-.006.612-.323.287-.551-.667-.471-.851-.277-.927-1.3-.244-3.332.024-6.774.024-10.118.004-.643-.106-1.192.553-1.521z"/><path data-name="Path 52" d="M30.548 13.449a6.633 6.633 0 0 1-4.825 1.94 5.024 5.024 0 0 0-.958 0c-.918-.142-3.219-.142-3.694-1.049l-.2-7.263c-.019-.724-.025-4.171.279-4.52.219-.251 1.111-.444 1.121-.862l-.3-.292-1.583.01c-1.185.016-2.416-.1-3.595-.045-.129.005-.388.137-.383.292.012.291 1.259.692 1.266 1.295.052 4.025.109 8.048.151 12.074.011 1.2-1.111.75-1.111 1.34 0 .49 1.952.208 2.217.208 3.921 0 7.849.09 11.771.09.833 0 .526-2.47.507-2.954a.371.371 0 0 0-.663-.264z"/><path data-name="Path 53" d="M58.941 2.166a.95.95 0 0 1 .991 1.036s.029 1.916-.008 2.28c-.1.969-.015 4.2-.015 4.2s.047 1.442-.012 1.928-.021 3.538-.021 3.538c0 .838-.989.716-.979 1.21 0 .239.34.289.525.289h3.992c.065 0 .607-.078.6-.333-.01-.484-.945-.21-.965-1.264 0 0-.006-2.692-.021-3s-.013-3.3.006-3.437c.035-.265.016-2.51.04-2.691.081-.529.01-2.465.01-2.465 0-.345-.095-.762.119-1.007a4.519 4.519 0 0 1 .735-.5.489.489 0 0 0 .137-.354c-.005-.2-.147-.289-.387-.289-.112 0-.534.09-.646.09s-.7.019-1.327.067c-.573.045-1.474-.052-1.586-.045a6.842 6.842 0 0 1-1.143-.022c-.269 0-.4.138-.419.286a.462.462 0 0 0 .374.483z"/><path data-name="Path 54" d="M74.72 16.624c.178.026.479.063.588.063.017 0 .493-.109.469-.351-.066-.376-.571-.442-1.057-.507a4.447 4.447 0 0 1-1.33-.58 34.469 34.469 0 0 1-2.705-2.668 3.017 3.017 0 0 1-.505-.545c-1.141-1.2-3.349-3.531-3.306-3.635a4.453 4.453 0 0 1 1.086-1.27c.567-.583 1-1.052 1.613-1.615.233-.218.607-.6.938-.929s.816-.814 1.194-1.163c.144-.134.4-.357.547-.512a5.813 5.813 0 0 1 .969-.662c.374-.175 1.147-.153 1.154-.524.006-.211-.149-.236-.372-.356-4.691.083-2.914 0-4.324 0a.407.407 0 0 0-.359.3c-.045.464.728.2.595.708-.031.117-1.561 1.741-1.917 2.076-1.516 1.435-2.6 2.794-4.276 4.182a.466.466 0 0 0-.066.684c.419.4 1.387 1.483 1.615 1.755.545.651 1.071 1.022 1.633 1.678.422.5.978 1.07 1.539 1.693.221.245.435.46.57.626.06.078.383.387.383.583 0 .376-.868.24-.868.652 0 .327.432.373.7.373.109 0 1.417-.044 1.529-.044h.892c2.927.043 2.982-.024 3.071-.012z"/><path data-name="Path 55" d="M41.193 16.627c.088 0 .949.15.925-.4-.024-.662-.9-.342-1.3-.948-.28-.435-.526-.865-.791-1.322-.173-.286-.539-.9-.685-1.168-.595-1.081-1.139-1.776-1.689-2.789-1.02-1.868-2.384-4.053-3.332-5.809a17.432 17.432 0 0 1-1.149-2.314 1.679 1.679 0 0 1-.024-.767 2.54 2.54 0 0 0 .4-.753c0-.017-.045-.333-.265-.333-.782 0-1.965 1.815-2.159 2.25-.214.481-.527 1.006-.736 1.376-.138.243-.3.679-.433.918-.275.522-.536.845-.846 1.374-.357.6-.652 1.4-1.005 1.953-.071.1-.362.853-.44.97-.373.595-1.5 3.024-1.828 3.636a1.8 1.8 0 0 1-1.587 1.147c-.685.275-.22.837 0 .749a8.436 8.436 0 0 1 1.389.1 8.746 8.746 0 0 1 1.034-.1c.111 0 1.171-.129 1.28-.129s.661-.131.661-.488c0-.4-.723-.481-.729-.486a1.292 1.292 0 0 1-.2-.4 2.193 2.193 0 0 1 .131-.837c.267-.429.775-.44 1.19-.529l4.1.044a4.17 4.17 0 0 1 2.194.359c.627.463 1.69 3.214 1.755 3.454.133.484-.572.4-.551.968 0 .109.221.42.376.333l2.667-.09c.834.005 1.251.014 1.647.031zm-7.627-7.42c-.1.544-.521.563-1.143.581l-2.491-.017c-.4 0-.481-.413-.481-.623a16.247 16.247 0 0 1 1.045-2.29c.179-.347.466-1.044.882-1.127.5-.1.884.624 1.607 2.092a5.681 5.681 0 0 1 .581 1.385z"/><path data-name="Path 56" d="M54.198 16.247a7.129 7.129 0 0 0 1.654-.969 3.28 3.28 0 0 0 1.126-3.064c-.2-.823-.507-1.08-.8-1.192-.149-.057-.654.045-.683.31-.066.617.335.521.442.882a1.758 1.758 0 0 1-.749 1.894 5.319 5.319 0 0 1-2.006.993 23.99 23.99 0 0 1-1.764.264 7.9 7.9 0 0 1-1.878-.09 9.235 9.235 0 0 1-2.24-.588 5.539 5.539 0 0 1-3.156-3.62 7.845 7.845 0 0 1-.22-2.534 6.568 6.568 0 0 1 .855-2.631 6.016 6.016 0 0 1 4.232-2.882c.744-.06 1.366-.094 1.475-.088a11.83 11.83 0 0 1 1.55.136c1.935.429 3.355 1.153 4.21 3.019a.491.491 0 0 0 .484.151.369.369 0 0 0 .154-.371c0-1.728-.021-1.764-.021-1.873s-.03-.576-.03-.685.045-.662.045-.772c0-.088-.086-.593-.367-.593a.829.829 0 0 0-.5.286c-.118.244-.383.221-.692.112a13.616 13.616 0 0 0-3.929-1.039 10.239 10.239 0 0 0-1.6-.02 8.855 8.855 0 0 0-1.433.087c-.463.111-1.147.2-1.542.287a13.978 13.978 0 0 0-2.447 1.014 8.4 8.4 0 0 0-2.337 2.095 7.117 7.117 0 0 0-1.328 4.494 6.93 6.93 0 0 0 2.938 5.82 13.3 13.3 0 0 0 2.292 1.235 11.129 11.129 0 0 0 2.106.46 13.789 13.789 0 0 0 2.9.113 11.8 11.8 0 0 0 3.259-.641z"/><path data-name="Path 57" d="M125.195 1.414l.049-.022c-.06.015-.069.021-.049.022z"/><path data-name="Path 58" d="M130.289 15.982c-.357-.146-.922-.351-.925-.838l.014-1.439.009-5.834a32.867 32.867 0 0 1 .151-4.274 1.35 1.35 0 0 1 .335-.587c.2-.588 2.2-.221 3.217 0a5.294 5.294 0 0 1 2.189 1.056c.118.269.391.45.508.7.343.736.4 2.2-.383 2.708-.45.894-2.714 1.2-3.547 1.223a.489.489 0 0 0-.459.355 13.862 13.862 0 0 0 .724 4.1 10.262 10.262 0 0 0 14.019 5.641c.405-.189 1.357-.9 1.425-1.351.163-.192-.153-.352-.261-.279a3.976 3.976 0 0 1-2.19.906 7.942 7.942 0 0 1-2.677.063 11.072 11.072 0 0 1-7.053-4.1 8.151 8.151 0 0 1-1.542-4.1c-.017-.291.349-.326.55-.352a8.25 8.25 0 0 0 2.025-.582 6.411 6.411 0 0 1 .862-.478 3.3 3.3 0 0 0 1.544-3.26c-.025-.146-.035-.516-.132-.617a1.835 1.835 0 0 0-.165-.583 4.426 4.426 0 0 0-1.555-1.533c-2.065-1.264-5.223-1.1-7.426-1.045-.887.02-2.335.012-3.219-.045l-.765-.05c-.007 0-.306.032-.362.027-1.106.475.928.869.973 1.433a2.938 2.938 0 0 0 .035.411c.039.985.1 2.09.072 2.972-.011.41.025 1.719-.011 2.381s0 2.6-.007 3.671a26.736 26.736 0 0 1-.109 3.064c-.031.255-.374.52-.6.6-.641.218-.541.719-.177.7a66.64 66.64 0 0 1 4.937-.02c.261.007.239-.536-.024-.644z"/><path data-name="Path 59" d="M156.361 15.83a4.385 4.385 0 0 1-1.329-.58 33.826 33.826 0 0 1-2.707-2.668 2.906 2.906 0 0 1-.5-.545c-1.142-1.2-3.349-3.531-3.306-3.635a4.434 4.434 0 0 1 1.086-1.27c.567-.583 1-1.052 1.612-1.615.234-.218.608-.6.938-.929s.817-.814 1.194-1.163c.146-.134.4-.357.549-.512a5.808 5.808 0 0 1 .969-.662c.374-.175 1.146-.153 1.154-.524.005-.211-.15-.236-.372-.356-4.692.083-2.916 0-4.325 0a.409.409 0 0 0-.36.3c-.043.464.727.2.6.708-.032.117-1.562 1.741-1.917 2.076-1.516 1.435-2.6 2.794-4.279 4.182a.469.469 0 0 0-.065.684c.42.4 1.388 1.483 1.615 1.755.545.651 1.072 1.022 1.633 1.678.423.5.979 1.07 1.537 1.693.224.245.438.46.571.626.061.078.384.387.384.583 0 .376-.868.24-.868.652 0 .327.43.373.7.373.109 0 1.417-.044 1.529-.044h.891c2.932.04 2.987-.03 3.076-.017.178.026.478.063.588.063.016 0 .49-.109.469-.351-.075-.371-.582-.436-1.067-.502z"/><path data-name="Path 60" d="M140.58 2.166a.95.95 0 0 1 .991 1.036s.029 1.916-.007 2.28c-.1.969-.015 4.2-.015 4.2s.047 1.442-.012 1.928-.021 3.538-.021 3.538c0 .838-.99.716-.98 1.21.005.239.341.289.525.289h3.99c.067 0 .608-.078.6-.333-.009-.484-.944-.21-.966-1.264 0 0-.006-2.692-.019-3s-.012-3.3.006-3.437c.035-.265.015-2.51.042-2.691.077-.529.006-2.465.006-2.465 0-.345-.093-.762.119-1.007a4.525 4.525 0 0 1 .736-.5.488.488 0 0 0 .137-.354c-.005-.2-.147-.289-.387-.289-.112 0-.536.09-.648.09s-.693.019-1.325.067c-.573.045-1.474-.052-1.586-.045a6.841 6.841 0 0 1-1.143-.022c-.269 0-.4.138-.419.286a.459.459 0 0 0 .376.483z"/><path data-name="Path 61" d="M187.25 14.281c0-.027-.016-.1-.072-.093-.126.008-.337 0-.565.006h-.68l-.5-.006c-.068-.006-.1.029-.1.062 0 .123-.005.184-.012.3 0 .039.052.073.076.03a.209.209 0 0 1 .075-.091.479.479 0 0 1 .209-.058.638.638 0 0 1 .107-.006c.142 0 .282.011.286.117v.661l.006.386-.006.387-.006.228a.232.232 0 0 1-.039.131c-.029.037-.086.032-.086.077s.012.04.059.045c.063 0 .165-.016.178-.016a3.361 3.361 0 0 1 .369.011.047.047 0 0 0 .036-.082c-.022-.015-.052-.013-.076-.046a.3.3 0 0 1-.038-.146c-.011-.188 0-.343-.005-.606-.005-.137.006-.251 0-.373-.007-.17.005-.362.005-.515s0-.185.068-.225a.449.449 0 0 1 .223-.045.725.725 0 0 1 .349.07c.03.02.04.065.057.093s.078.025.075-.047a2.02 2.02 0 0 1 .007-.249z"/><path data-name="Path 62" d="M189.865 14.455c0-.092.015-.137.066-.15.035-.012.072-.036.068-.076s-.024-.041-.057-.041a.99.99 0 0 0-.139 0 1.816 1.816 0 0 1-.221-.009c-.052.006-.114-.014-.16.032a1.732 1.732 0 0 0-.182.205c-.035.05-.134.174-.167.218-.093.119-.154.216-.259.33a.13.13 0 0 1-.061.04c-.029 0-.062-.051-.1-.09-.294-.3-.561-.607-.653-.713-.035-.036-.117.01-.45-.022-.031 0-.049.029-.046.062 0 .061.142.036.142.2l-.015 1.219c0 .147-.01.464-.01.464a.568.568 0 0 1-.025.19c-.009.017-.1.036-.1.088s.024.045.063.04a1.55 1.55 0 0 1 .172-.019 1.311 1.311 0 0 1 .16.013c.024 0 .058 0 .058-.04 0-.085-.1-.027-.1-.168 0 0-.009-.169-.009-.247 0-.2.019-.55.015-.68a2.185 2.185 0 0 1 .01-.225v-.138l.012-.1c.012-.06.037-.056.058-.056a2.913 2.913 0 0 1 .275.27c.048.053.358.387.413.44.029.029.04.034.061.036s.041-.022.066-.046.157-.211.194-.255.156-.216.167-.234c.081-.093.163-.225.272-.337.039-.049.09-.056.09 0v.109c0 .016-.016.859-.01 1.144v.337c0 .122-.127.09-.127.156a.047.047 0 0 0 .025.039l.271-.019a.567.567 0 0 0 .092.011c.071 0 .18.006.193.006s.062 0 .062-.036c0-.062-.1-.047-.121-.172v-.6c-.01-.433.024-.667.011-.862v-.112a2.552 2.552 0 0 1-.004-.202z"/></g></g></svg>